<svg xmlns="http://www.w3.org/2000/svg" xmlns:xlink="http://www.w3.org/1999/xlink" width="118" height="93" viewBox="0 0 118 93">
  <defs>
    <linearGradient id="linear-gradient" x1="0.5" x2="0.5" y2="1" gradientUnits="objectBoundingBox">
      <stop offset="0" stop-color="#54eac4"/>
      <stop offset="1" stop-color="#19b08a"/>
    </linearGradient>
  </defs>
  <g id="apart-btn" transform="translate(-140 -55)">
    <g id="Path_146" data-name="Path 146" transform="translate(140 55)" fill="url(#linear-gradient)">
      <path d="M 106 92.5 L 12 92.5 C 8.92824649810791 92.5 6.040338516235352 91.30378723144531 3.868276834487915 89.13172149658203 C 1.696215391159058 86.95966339111328 0.5 84.07175445556641 0.5 81 L 0.5 12 C 0.5 8.92824649810791 1.696215391159058 6.040338516235352 3.868276834487915 3.868276834487915 C 6.040338516235352 1.696215391159058 8.92824649810791 0.5 12 0.5 L 106 0.5 C 109.0717544555664 0.5 111.9596633911133 1.696215391159058 114.131721496582 3.868276834487915 C 116.3037872314453 6.040338516235352 117.5 8.92824649810791 117.5 12 L 117.5 81 C 117.5 84.07175445556641 116.3037872314453 86.95966339111328 114.131721496582 89.13172149658203 C 111.9596633911133 91.30378723144531 109.0717544555664 92.5 106 92.5 Z" stroke="none"/>
      <path d="M 12 1 C 9.061798095703125 1 6.299446105957031 2.144203186035156 4.221832275390625 4.221832275390625 C 2.144203186035156 6.299446105957031 1 9.061798095703125 1 12 L 1 81 C 1 83.93820190429688 2.144203186035156 86.70055389404297 4.221832275390625 88.77816772460938 C 6.299446105957031 90.85579681396484 9.061798095703125 92 12 92 L 106 92 C 108.9382019042969 92 111.700553894043 90.85579681396484 113.7781677246094 88.77816772460938 C 115.8557968139648 86.70055389404297 117 83.93820190429688 117 81 L 117 12 C 117 9.061798095703125 115.8557968139648 6.299446105957031 113.7781677246094 4.221832275390625 C 111.700553894043 2.144203186035156 108.9382019042969 1 106 1 L 12 1 M 12 0 L 106 0 C 112.6274185180664 0 118 5.372581481933594 118 12 L 118 81 C 118 87.62741851806641 112.6274185180664 93 106 93 L 12 93 C 5.372581481933594 93 0 87.62741851806641 0 81 L 0 12 C 0 5.372581481933594 5.372581481933594 0 12 0 Z" stroke="none" fill="#f5ebd9"/>
    </g>
    <text id="Apartment" transform="translate(160 131)" fill="#415e8f" font-size="18" font-family="FiraSansCondensed-SemiBold, Fira Sans" font-weight="600"><tspan x="0" y="0">Apartment</tspan></text>
    <path id="Icon_awesome-building" data-name="Icon awesome-building" d="M30.656,33.75H29.25V1.688A1.687,1.687,0,0,0,27.563,0H3.938A1.687,1.687,0,0,0,2.25,1.688V33.75H.844A.844.844,0,0,0,0,34.594V36H31.5V34.594A.844.844,0,0,0,30.656,33.75ZM9,5.344A.844.844,0,0,1,9.844,4.5h2.813a.844.844,0,0,1,.844.844V8.156A.844.844,0,0,1,12.656,9H9.844A.844.844,0,0,1,9,8.156Zm0,6.75a.844.844,0,0,1,.844-.844h2.813a.844.844,0,0,1,.844.844v2.813a.844.844,0,0,1-.844.844H9.844A.844.844,0,0,1,9,14.906ZM12.656,22.5H9.844A.844.844,0,0,1,9,21.656V18.844A.844.844,0,0,1,9.844,18h2.813a.844.844,0,0,1,.844.844v2.813A.844.844,0,0,1,12.656,22.5ZM18,33.75H13.5V27.844A.844.844,0,0,1,14.344,27h2.813a.844.844,0,0,1,.844.844Zm4.5-12.094a.844.844,0,0,1-.844.844H18.844A.844.844,0,0,1,18,21.656V18.844A.844.844,0,0,1,18.844,18h2.813a.844.844,0,0,1,.844.844Zm0-6.75a.844.844,0,0,1-.844.844H18.844A.844.844,0,0,1,18,14.906V12.094a.844.844,0,0,1,.844-.844h2.813a.844.844,0,0,1,.844.844Zm0-6.75A.844.844,0,0,1,21.656,9H18.844A.844.844,0,0,1,18,8.156V5.344a.844.844,0,0,1,.844-.844h2.813a.844.844,0,0,1,.844.844Z" transform="translate(183.25 72)" fill="#fff"/>
  </g>
</svg>
