<?xml version="1.0" encoding="UTF-8"?><svg id="uuid-dd59971c-17b9-4839-b7c4-168ad3412cf3" xmlns="http://www.w3.org/2000/svg" viewBox="0 0 368.64 364.6"><path d="m11.89,0h69.34c3.25,0,6.21,1.33,8.38,3.49h.01s.01.02.01.02h.01c2.14,2.17,3.47,5.13,3.47,8.38v67.94c0,3.25-1.33,6.21-3.49,8.38h-.01s-.01.02-.01.02h-.01c-2.16,2.16-5.12,3.49-8.36,3.49H11.89c-3.25,0-6.21-1.33-8.38-3.49h-.01s-.01-.02-.01-.02h-.01c-2.14-2.17-3.47-5.14-3.47-8.38V11.89c0-3.25,1.34-6.21,3.49-8.38h.01s.01-.02.01-.02h.01C5.68,1.33,8.64,0,11.89,0Z" fill="#1bc197" stroke-width="0"/><path d="m287.42,0h69.34c3.25,0,6.21,1.33,8.38,3.49h.01s.01.02.01.02h.01c2.14,2.17,3.47,5.13,3.47,8.38v67.94c0,3.25-1.33,6.21-3.49,8.38h-.01s-.01.02-.01.02h-.01c-2.16,2.16-5.12,3.49-8.36,3.49h-69.34c-3.25,0-6.21-1.33-8.38-3.49h-.01s-.01-.02-.01-.02h-.01c-2.14-2.17-3.47-5.14-3.47-8.38V11.89c0-3.25,1.33-6.21,3.49-8.38h.01s.01-.02.01-.02h.01c2.16-2.16,5.12-3.49,8.36-3.49Z" fill="#1bc197" stroke-width="0"/><path d="m11.89,272.89h69.34c3.25,0,6.21,1.33,8.38,3.49h.01s.01.02.01.02h.01c2.14,2.17,3.47,5.13,3.47,8.38v67.94c0,3.27-1.34,6.25-3.49,8.4-2.15,2.15-5.12,3.49-8.4,3.49H11.89c-3.27,0-6.25-1.34-8.4-3.49-2.15-2.15-3.49-5.12-3.49-8.4v-67.94c0-3.25,1.34-6.21,3.49-8.38h.01s.01-.02.01-.02h.01c2.16-2.16,5.12-3.49,8.36-3.49Z" fill="#1bc197" stroke-width="0"/><path d="m287.42,272.89h69.34c3.25,0,6.21,1.33,8.38,3.49h.01s.01.02.01.02h.01c2.14,2.17,3.47,5.13,3.47,8.38v67.94c0,3.27-1.33,6.25-3.49,8.4-2.15,2.15-5.12,3.49-8.4,3.49h-69.34c-3.27,0-6.25-1.34-8.4-3.49-2.15-2.15-3.49-5.12-3.49-8.4v-67.94c0-3.25,1.33-6.21,3.49-8.38h.01s.01-.02.01-.02h.01c2.16-2.16,5.12-3.49,8.36-3.49Z" fill="#1bc197" stroke-width="0"/><path d="m330.73,97.48v169.65h-17.28V97.48h17.28Zm-60.95,229.91H98.87v-17.28h170.91v17.28h0Zm-231.86-60.26V97.48h17.28v169.65h-17.28ZM98.87,37.22h170.91v17.28H98.87v-17.28Z" fill="#1bc197" fill-rule="evenodd" stroke-width="0"/></svg>