<svg xmlns="http://www.w3.org/2000/svg" xmlns:xlink="http://www.w3.org/1999/xlink" width="246.092" height="81.621" viewBox="0 0 246.092 81.621">
  <defs>
    <linearGradient id="linear-gradient" x1="0.864" y1="0.255" x2="0.075" y2="0.749" gradientUnits="objectBoundingBox">
      <stop offset="0" stop-color="#6cd7bc"/>
      <stop offset="1" stop-color="#0c8d6c"/>
    </linearGradient>
    <linearGradient id="linear-gradient-2" x1="0.965" y1="0.089" x2="-0.269" y2="1.266" gradientUnits="objectBoundingBox">
      <stop offset="0" stop-color="#39c6a2"/>
      <stop offset="1" stop-color="#0d7b5e"/>
    </linearGradient>
    <filter id="Path_62725" x="0" y="0" width="81.621" height="81.621" filterUnits="userSpaceOnUse">
      <feOffset dy="3" input="SourceAlpha"/>
      <feGaussianBlur stdDeviation="3" result="blur"/>
      <feFlood flood-opacity="0.16" result="color"/>
      <feComposite operator="out" in="SourceGraphic" in2="blur"/>
      <feComposite operator="in" in="color"/>
      <feComposite operator="in" in2="SourceGraphic"/>
    </filter>
    <clipPath id="clip-path">
      <path id="Path_30" data-name="Path 30" d="M28.468,0,0,24.365H9.711V42.653H26.786V24.365a20.5,20.5,0,0,1,3.363-10.582c1.148-1.832,4.767-5.433,6.438-7Z" fill="url(#linear-gradient)"/>
    </clipPath>
    <clipPath id="clip-path-2">
      <path id="Path_31" data-name="Path 31" d="M95.482,110.306c0-4.907-6.377-7.772-11.16-7.772,0,4.535,2.923,7.772,11.16,7.772" transform="translate(-84.322 -102.534)" fill="#fefcfa"/>
    </clipPath>
    <clipPath id="clip-path-3">
      <path id="Path_32" data-name="Path 32" d="M193.863,34.054c.115-.05.229-.1.344-.154.229-.106.456-.215.684-.33s.454-.234.682-.359q.318-.177.637-.363c.028-.018.055-.035.084-.051l.293-.178.317-.2.033-.022.284-.185.075-.05c.179-.121.357-.245.535-.37l.118-.085.272-.2c.014-.012.027-.021.039-.03.1-.077.2-.154.306-.233s.215-.168.321-.253.214-.172.32-.26l.3-.253a.439.439,0,0,0,.036-.031q.148-.126.293-.256c.1-.091.207-.186.311-.279a.063.063,0,0,1,.011-.009l.3-.277c.1-.1.2-.194.3-.294s.2-.2.3-.3q.6-.605,1.159-1.264.11-.126.215-.255.278-.332.542-.677c.051-.064.1-.128.15-.194.15-.2.3-.4.441-.6.085-.12.321-.376.4-.5l2.008,1.618a18.6,18.6,0,0,1-12.114,6.891Zm1.186-18.984c3.8-1.782,7.564-1.2,9.567-1.2,0,3.363-1.7,7.355-4.049,10.976-3.682,5.679-8.964,10.447-11.794,10.447,0-5.332,3.551-10.157,6.835-13.6,1.318-1.386,2.593-2.548,3.578-3.433a21.307,21.307,0,0,0-4.759,2.68c-5.113,3.8-8.132,9.427-8.132,13.261V52.483H203.37V34.2l11.484.046-10.877-8.687c2.656-3.88,3.353-8.016,3.353-13.826a24,24,0,0,0-12.282,3.343" transform="translate(-186.295 -11.728)" fill="url(#linear-gradient-2)"/>
    </clipPath>
    <clipPath id="clip-path-4">
      <rect id="Rectangle_35" data-name="Rectangle 35" width="60.292" height="42.671" fill="none"/>
    </clipPath>
    <clipPath id="clip-path-5">
      <path id="Path_34" data-name="Path 34" d="M242.738,97.623c-.145.2-.291.4-.441.6-.049.066-.1.13-.15.194q-.265.346-.542.677-.105.13-.215.255-.561.659-1.159,1.264c-.1.1-.2.2-.3.3s-.2.2-.3.294l-.3.277a.061.061,0,0,0-.011.009c-.1.094-.206.188-.311.279s-.195.172-.293.256a.439.439,0,0,1-.036.031l-.3.253c-.106.088-.212.175-.32.26s-.212.168-.321.253-.2.156-.306.233c-.012.009-.026.018-.039.03l-.272.2-.118.085c-.178.125-.356.25-.535.37l-.075.05-.284.185-.033.022-.317.2-.293.178c-.029.016-.055.033-.084.051q-.318.186-.637.363c-.227.125-.454.244-.682.359s-.456.224-.684.33c-.115.053-.229.1-.344.154l0,0a18.6,18.6,0,0,0,12.114-6.891l-2.008-1.618c-.084.123-.319.379-.4.5" transform="translate(-233.037 -97.125)" fill="none"/>
    </clipPath>
  </defs>
  <g id="auth-modal-logo" transform="translate(-434.608 -276)">
    <g data-type="innerShadowGroup">
      <path id="Path_62725-2" data-name="Path 62725" d="M40.81,0A40.81,40.81,0,1,1,0,40.81,40.81,40.81,0,0,1,40.81,0Z" transform="translate(434.608 276)" fill="rgba(251,248,242,0.38)"/>
      <g transform="matrix(1, 0, 0, 1, 434.61, 276)" filter="url(#Path_62725)">
        <path id="Path_62725-3" data-name="Path 62725" d="M40.81,0A40.81,40.81,0,1,1,0,40.81,40.81,40.81,0,0,1,40.81,0Z" fill="#fff"/>
      </g>
    </g>
    <g id="Group_29" data-name="Group 29" transform="translate(447.708 292.127)">
      <g id="Group_28" data-name="Group 28" clip-path="url(#clip-path)">
        <rect id="Rectangle_32" data-name="Rectangle 32" width="54.375" height="51.582" transform="translate(-16.805 34.456) rotate(-64)" fill="url(#linear-gradient)"/>
      </g>
    </g>
    <g id="Group_31" data-name="Group 31" transform="translate(461.354 308.72)">
      <g id="Group_30" data-name="Group 30" clip-path="url(#clip-path-2)">
        <rect id="Rectangle_33" data-name="Rectangle 33" width="11.877" height="13.437" transform="translate(-3.062 6.278) rotate(-64)" fill="#fefcfa"/>
      </g>
    </g>
    <g id="Group_33" data-name="Group 33" transform="translate(477.857 294.025)">
      <g id="Group_32" data-name="Group 32" clip-path="url(#clip-path-3)">
        <rect id="Rectangle_34" data-name="Rectangle 34" width="45.111" height="49.574" transform="matrix(0.866, -0.5, 0.5, 0.866, -17.647, 10.189)" fill="url(#linear-gradient-2)"/>
      </g>
    </g>
    <g id="Group_35" data-name="Group 35" transform="translate(447.708 292.127)">
      <g id="Group_34" data-name="Group 34" clip-path="url(#clip-path-4)">
        <path id="Path_33" data-name="Path 33" d="M240.356,32.388l0,0" transform="translate(-201.458 -27.144)" fill="none" stroke="#7cb732" stroke-linecap="round" stroke-linejoin="round" stroke-width="0"/>
      </g>
    </g>
    <g id="Group_37" data-name="Group 37" transform="translate(485.422 307.845)">
      <g id="Group_36" data-name="Group 36" clip-path="url(#clip-path-5)">
        <path id="Path_63388" data-name="Path 63388" d="M0,0H14.745V13.426H0Z" transform="translate(-3.685 2.127) rotate(-30)" fill="#fefcfa"/>
      </g>
    </g>
    <path id="Path_63390" data-name="Path 63390" d="M13.26-20.76H1.86V0h11.4V-3.18H6.18V-9h5.79v-3.12H6.18v-5.49h6.63Zm10.71,4.38a5.17,5.17,0,0,0-4.32,2.46l-.3-1.98H15.72V0h4.17V-11.01c.78-1.38,1.62-2.22,2.58-2.22.84,0,1.35.51,1.35,2.1V0h4.17V-11.73C27.99-14.61,26.49-16.38,23.97-16.38Zm19.47.48H39.27L36.48-3.24,33.78-15.9H29.37L33.99,0h4.95Zm3.78-8.13a2.38,2.38,0,0,0-2.49,2.43,2.4,2.4,0,0,0,2.49,2.46,2.4,2.4,0,0,0,2.49-2.46A2.38,2.38,0,0,0,47.22-24.03Zm2.1,8.13H45.15V0h4.17Zm11.22-.42c-1.71,0-3.03,1.2-3.75,3.33l-.33-2.91H52.83V0H57V-8.43c.48-2.43,1.26-3.84,3-3.84a4.264,4.264,0,0,1,1.26.18l.69-4.02A4.216,4.216,0,0,0,60.54-16.32Zm8.82-.06c-4.38,0-7.02,3.12-7.02,8.43,0,5.43,2.67,8.43,6.99,8.43,4.35,0,6.99-3.21,6.99-8.43C76.32-13.47,73.68-16.38,69.36-16.38Zm0,3.12c1.74,0,2.64,1.44,2.64,5.31,0,3.81-.9,5.31-2.67,5.31s-2.64-1.44-2.64-5.31C66.69-11.76,67.56-13.26,69.36-13.26Zm21.72-4.92a11.059,11.059,0,0,1-6.57,1.83c-3.81-.03-6.33,2.16-6.33,5.73a4.717,4.717,0,0,0,2.58,4.53,3.644,3.644,0,0,0-1.74,2.94c0,1.71,1.26,3.06,4.56,3.06h1.71c1.56,0,2.31.66,2.31,1.83s-.72,2.01-3.21,2.01c-2.61,0-3.18-.69-3.18-2.22H77.49c0,3.09,1.44,5.04,6.84,5.04,4.86,0,7.44-2.01,7.44-5.13,0-2.58-2.13-4.5-5.61-4.5H84.15c-1.35,0-1.62-.48-1.62-1.08a1.259,1.259,0,0,1,.51-1.08,7.131,7.131,0,0,0,1.65.18c3.75,0,6.03-2.19,6.03-5.31a4.157,4.157,0,0,0-2.7-4.11,10.888,10.888,0,0,0,4.11-.57Zm-6.57,4.59c1.5,0,2.22.9,2.22,2.85,0,2.16-.78,3.03-2.22,3.03-1.38,0-2.22-1.05-2.22-2.97C82.29-12.63,83.1-13.59,84.51-13.59Zm17.04-2.73c-1.71,0-3.03,1.2-3.75,3.33l-.33-2.91H93.84V0h4.17V-8.43c.48-2.43,1.26-3.84,3-3.84a4.264,4.264,0,0,1,1.26.18l.69-4.02A4.216,4.216,0,0,0,101.55-16.32Zm15.06,8.01c0-5.25-2.49-8.07-6.54-8.07-4.38,0-6.72,3.54-6.72,8.52,0,5.13,2.46,8.34,7.17,8.34a8.266,8.266,0,0,0,5.55-2.13l-1.71-2.34a5.586,5.586,0,0,1-3.54,1.35c-1.8,0-3-.87-3.24-4.05h8.94C116.55-7.14,116.61-7.77,116.61-8.31Zm-4.08-.99h-4.95c.18-3.21,1.05-4.23,2.52-4.23,1.74,0,2.43,1.41,2.43,4.02Zm19.23.99c0-5.25-2.49-8.07-6.54-8.07-4.38,0-6.72,3.54-6.72,8.52,0,5.13,2.46,8.34,7.17,8.34a8.266,8.266,0,0,0,5.55-2.13l-1.71-2.34a5.586,5.586,0,0,1-3.54,1.35c-1.8,0-3-.87-3.24-4.05h8.94C131.7-7.14,131.76-7.77,131.76-8.31Zm-4.08-.99h-4.95c.18-3.21,1.05-4.23,2.52-4.23,1.74,0,2.43,1.41,2.43,4.02Zm15-7.08a5.17,5.17,0,0,0-4.32,2.46l-.3-1.98h-3.63V0h4.17V-11.01c.78-1.38,1.62-2.22,2.58-2.22.84,0,1.35.51,1.35,2.1V0h4.17V-11.73C146.7-14.61,145.2-16.38,142.68-16.38Z" transform="translate(534 317)" fill="#415e8f"/>
    <path id="Path_63389" data-name="Path 63389" d="M8.379,0h3.339L8.358-6.3A3.922,3.922,0,0,0,10.9-10.206c0-2.835-1.785-4.326-5.565-4.326H1.3V0H4.326V-5.733H5.607ZM4.326-7.854v-4.515h.966c1.743,0,2.5.693,2.5,2.163,0,1.638-.735,2.352-2.331,2.352ZM21.5-5.817c0-3.675-1.743-5.649-4.578-5.649-3.066,0-4.7,2.478-4.7,5.964,0,3.591,1.722,5.838,5.019,5.838a5.786,5.786,0,0,0,3.885-1.491l-1.2-1.638a3.91,3.91,0,0,1-2.478.945c-1.26,0-2.1-.609-2.268-2.835h6.258C21.462-5,21.5-5.439,21.5-5.817ZM18.648-6.51H15.183c.126-2.247.735-2.961,1.764-2.961,1.218,0,1.7.987,1.7,2.814ZM31.08-2.94v-4.7c0-2.5-1.26-3.822-4.074-3.822a10.163,10.163,0,0,0-3.8.819l.672,1.911A8.23,8.23,0,0,1,26.523-9.3c1.218,0,1.7.441,1.7,1.827v.63h-.987c-3.087,0-4.746,1.323-4.746,3.738a3.171,3.171,0,0,0,3.3,3.444A3.379,3.379,0,0,0,28.77-1.281,2.526,2.526,0,0,0,31.164.294l.609-1.932C31.29-1.848,31.08-2.142,31.08-2.94ZM26.607-1.764c-.756,0-1.218-.546-1.218-1.575,0-1.239.672-1.848,2.121-1.848h.714v2.205A1.829,1.829,0,0,1,26.607-1.764ZM36.1.336a3.936,3.936,0,0,0,1.785-.4L37.317-2.1a1.125,1.125,0,0,1-.5.105c-.357,0-.525-.231-.525-.651v-13.23l-2.919.315V-2.52A2.564,2.564,0,0,0,36.1.336Zm4.62-17.157a1.666,1.666,0,0,0-1.743,1.7A1.683,1.683,0,0,0,40.719-13.4a1.683,1.683,0,0,0,1.743-1.722A1.666,1.666,0,0,0,40.719-16.821Zm1.47,5.691H39.27V0h2.919Zm7.686,8.8A2.129,2.129,0,0,1,48.762-2c-.63,0-.945-.378-.945-1.218V-9.051h2.016l.294-2.079h-2.31v-2.793l-2.919.357v2.436H43.47v2.079H44.9v5.88C44.9-.987,45.969.336,48.174.336a4.459,4.459,0,0,0,2.688-.861Zm10.668-8.8H57.582L55.524-1.911,53.613-11.13H50.589L53.655,0h1.05c-.546,1.554-1.3,2.226-3.276,2.541l.315,2.079A5.778,5.778,0,0,0,57.33.021Z" transform="translate(534 345)" fill="#1bc197"/>
  </g>
</svg>
