<svg xmlns="http://www.w3.org/2000/svg" xmlns:xlink="http://www.w3.org/1999/xlink" width="144" height="144" viewBox="0 0 144 144">
  <defs>
    <linearGradient id="linear-gradient" x1="0.864" y1="0.255" x2="0.075" y2="0.749" gradientUnits="objectBoundingBox">
      <stop offset="0" stop-color="#6cd7bc"/>
      <stop offset="1" stop-color="#0c8d6c"/>
    </linearGradient>
    <linearGradient id="linear-gradient-2" x1="0.965" y1="0.089" x2="-0.269" y2="1.266" gradientUnits="objectBoundingBox">
      <stop offset="0" stop-color="#39c6a2"/>
      <stop offset="1" stop-color="#0d7b5e"/>
    </linearGradient>
    <filter id="Ellipse_184" x="0" y="0" width="144" height="144" filterUnits="userSpaceOnUse">
      <feOffset dy="3" input="SourceAlpha"/>
      <feGaussianBlur stdDeviation="3" result="blur"/>
      <feFlood flood-opacity="0.161"/>
      <feComposite operator="in" in2="blur"/>
      <feComposite in="SourceGraphic"/>
    </filter>
    <filter id="Path_62725" x="16.319" y="13.319" width="111.363" height="111.363" filterUnits="userSpaceOnUse">
      <feOffset dy="3" input="SourceAlpha"/>
      <feGaussianBlur stdDeviation="3" result="blur-2"/>
      <feFlood flood-opacity="0.42" result="color"/>
      <feComposite operator="out" in="SourceGraphic" in2="blur-2"/>
      <feComposite operator="in" in="color"/>
      <feComposite operator="in" in2="SourceGraphic"/>
    </filter>
    <clipPath id="clip-path">
      <path id="Path_30" data-name="Path 30" d="M38.841,0,0,33.244H13.25V58.195h23.3V33.244a27.973,27.973,0,0,1,4.589-14.438c1.566-2.5,6.5-7.412,8.784-9.554Z" fill="url(#linear-gradient)"/>
    </clipPath>
    <clipPath id="clip-path-2">
      <path id="Path_31" data-name="Path 31" d="M99.549,113.138c0-6.695-8.7-10.6-15.227-10.6,0,6.187,3.989,10.6,15.227,10.6" transform="translate(-84.322 -102.534)" fill="#fefcfa"/>
    </clipPath>
    <clipPath id="clip-path-3">
      <path id="Path_32" data-name="Path 32" d="M196.62,42.19c.157-.069.312-.138.469-.21.312-.145.622-.293.934-.45s.62-.32.93-.49q.434-.242.869-.495c.038-.025.075-.047.114-.07l.4-.243.432-.271.045-.031c.129-.083.257-.168.387-.253l.1-.068c.245-.165.487-.335.73-.505l.161-.116c.125-.09.249-.179.371-.269.019-.017.037-.028.053-.041.141-.105.28-.21.418-.318s.294-.229.438-.345.292-.234.437-.355l.41-.345a.6.6,0,0,0,.049-.042q.2-.173.4-.349c.143-.125.283-.253.424-.381a.086.086,0,0,1,.014-.013c.134-.125.269-.251.4-.378s.277-.265.414-.4.273-.269.408-.408q.813-.826,1.581-1.725.15-.171.293-.348.38-.452.74-.924c.07-.087.137-.175.2-.265.2-.269.4-.542.6-.818.117-.164.438-.512.552-.68l2.74,2.208a25.38,25.38,0,0,1-16.528,9.4Zm1.618-25.9c5.181-2.431,10.32-1.64,13.053-1.64,0,4.589-2.318,10.035-5.524,14.976-5.024,7.749-12.23,14.253-16.091,14.253,0-7.275,4.846-13.857,9.326-18.562,1.8-1.891,3.538-3.476,4.882-4.684a29.071,29.071,0,0,0-6.493,3.656C190.414,29.477,186.3,37.15,186.3,42.382V67.333h23.3V42.382l15.669.062L210.421,30.592C214.044,25.3,215,19.656,215,11.728a32.742,32.742,0,0,0-16.758,4.561" transform="translate(-186.295 -11.728)" fill="url(#linear-gradient-2)"/>
    </clipPath>
    <clipPath id="clip-path-4">
      <rect id="Rectangle_35" data-name="Rectangle 35" width="82.262" height="58.219" fill="none"/>
    </clipPath>
    <clipPath id="clip-path-5">
      <path id="Path_34" data-name="Path 34" d="M246.273,97.805c-.2.276-.4.549-.6.818-.067.09-.134.177-.2.265q-.361.472-.74.924-.143.178-.293.348-.765.9-1.581,1.725c-.134.139-.271.273-.408.408s-.275.269-.414.4-.269.253-.4.378a.082.082,0,0,0-.014.013c-.141.128-.281.256-.424.381s-.265.234-.4.349a.59.59,0,0,1-.049.042c-.136.116-.273.23-.41.345s-.29.238-.437.355-.289.23-.438.345-.277.212-.418.318c-.017.013-.035.024-.053.041-.122.09-.246.179-.371.269l-.161.116c-.243.171-.485.341-.73.505l-.1.068c-.13.085-.258.17-.387.253l-.045.031-.432.271-.4.243c-.039.022-.076.044-.114.07q-.434.253-.869.495c-.31.17-.62.332-.93.49s-.622.306-.934.45c-.157.072-.312.141-.469.21l0,0a25.38,25.38,0,0,0,16.528-9.4l-2.74-2.208c-.115.168-.436.516-.552.68" transform="translate(-233.037 -97.125)" fill="none"/>
    </clipPath>
  </defs>
  <g id="auth-form-crl-logo" transform="translate(-309.44 -132.44)">
    <g transform="matrix(1, 0, 0, 1, 309.44, 132.44)" filter="url(#Ellipse_184)">
      <g id="Ellipse_184-2" data-name="Ellipse 184" transform="translate(9 6)" fill="#fff" stroke="#707070" stroke-width="1">
        <circle cx="63" cy="63" r="63" stroke="none"/>
        <circle cx="63" cy="63" r="62.5" fill="none"/>
      </g>
    </g>
    <g id="auth-modal-logo" transform="translate(325.759 145.759)">
      <g data-type="innerShadowGroup">
        <path id="Path_62725-2" data-name="Path 62725" d="M55.681,0A55.681,55.681,0,1,1,0,55.681,55.681,55.681,0,0,1,55.681,0Z" fill="#fbf8f2"/>
        <g transform="matrix(1, 0, 0, 1, -16.32, -13.32)" filter="url(#Path_62725)">
          <path id="Path_62725-3" data-name="Path 62725" d="M55.681,0A55.681,55.681,0,1,1,0,55.681,55.681,55.681,0,0,1,55.681,0Z" transform="translate(16.32 13.32)" fill="#fff"/>
        </g>
      </g>
      <g id="Group_29" data-name="Group 29" transform="translate(17.873 22.003)">
        <g id="Group_28" data-name="Group 28" clip-path="url(#clip-path)">
          <rect id="Rectangle_32" data-name="Rectangle 32" width="74.188" height="70.378" transform="translate(-22.929 47.012) rotate(-64)" fill="url(#linear-gradient)"/>
        </g>
      </g>
      <g id="Group_31" data-name="Group 31" transform="translate(36.491 44.643)">
        <g id="Group_30" data-name="Group 30" clip-path="url(#clip-path-2)">
          <rect id="Rectangle_33" data-name="Rectangle 33" width="16.205" height="18.334" transform="translate(-4.178 8.566) rotate(-64)" fill="#fefcfa"/>
        </g>
      </g>
      <g id="Group_33" data-name="Group 33" transform="translate(59.009 24.593)">
        <g id="Group_32" data-name="Group 32" clip-path="url(#clip-path-3)">
          <rect id="Rectangle_34" data-name="Rectangle 34" width="61.549" height="67.639" transform="matrix(0.866, -0.5, 0.5, 0.866, -24.078, 13.901)" fill="url(#linear-gradient-2)"/>
        </g>
      </g>
      <g id="Group_35" data-name="Group 35" transform="translate(17.873 22.003)">
        <g id="Group_34" data-name="Group 34" clip-path="url(#clip-path-4)">
          <path id="Path_33" data-name="Path 33" d="M240.356,32.389s0,0,.006,0" transform="translate(-187.283 -25.234)" fill="none" stroke="#7cb732" stroke-linecap="round" stroke-linejoin="round" stroke-width="0"/>
        </g>
      </g>
      <g id="Group_37" data-name="Group 37" transform="translate(69.329 43.449)">
        <g id="Group_36" data-name="Group 36" clip-path="url(#clip-path-5)">
          <path id="Path_63388" data-name="Path 63388" d="M0,0H20.119V18.318H0Z" transform="translate(-5.027 2.902) rotate(-30)" fill="#fefcfa"/>
        </g>
      </g>
    </g>
  </g>
</svg>
