<?xml version="1.0" encoding="UTF-8"?><svg id="uuid-4420b53f-8304-44e8-8034-e24b812aa774" xmlns="http://www.w3.org/2000/svg" viewBox="0 0 4557.86 3872.71"><path d="m880.5,2001.94c16.22-4.68,29.54-8.88,43.03-12.37,106.39-27.51,212.77-55.04,319.23-82.27,212.28-54.3,424.48-108.91,636.94-162.46,216.99-54.69,434.16-108.63,651.44-162.14,91.17-22.46,182.68-43.62,274.33-64.06,35.69-7.96,72.09-13.03,108.36-18.02,23.48-3.23,46.39,2.5,68.78,9.55,47.01,14.81,93.84,30.21,141.03,44.39,118.63,35.67,237.1,71.92,356.25,105.75,77.49,22,156.11,40.04,234.16,60.09,66.44,17.07,133.02,33.65,199.11,51.98,62.32,17.28,123.21,38.87,181.33,67.69,40.08,19.87,78.53,42.45,114.94,68.46,14.1,10.07,28.21,20.13,42.37,30.12,25.68,18.11,52.77,33.69,81.98,45.44,3.64,1.47,7.14,3.3,11.46,5.33-3.78,5.6-9.12,5.93-13.88,7.34-125.8,37.27-251.59,74.56-377.39,111.83-433.59,128.45-867.18,256.9-1300.77,385.35-123.24,36.51-246.47,73.09-369.72,109.56-10.8,3.19-21.98,8.59-32.62,7.84-10.65-.76-20.93-7.76-31.24-12.34-115.65-51.43-231.22-103.04-346.91-154.37-322.12-142.91-644.29-285.71-966.4-428.64-7.74-3.43-16.19-5.73-25.82-14.03Z" fill="#1bc197" stroke-width="0"/><path d="m307.43,1440.67c-.19-10.76-.44-18.69-.45-26.61-.15-156.62-.25-313.24-.42-469.85-.03-23.32-.4-46.65-.58-69.97-.05-6,.07-11.99.04-17.99-.03-7.01,3.43-11.16,10.14-12.87,1.93-.49,3.72-1.49,5.64-2.02,41.1-11.23,77.26-32.35,111.83-56.44,34.59-24.09,65.43-52.58,94.33-83.14,19.69-20.82,39.03-41.97,58.27-63.2,126.92-140.04,277.39-246.54,452.88-317.06,76.92-30.91,156.39-53.42,238.82-63.35,126.93-15.3,251.37-5.68,371.55,41.31,56.77,22.2,109.99,50.8,159.04,87.08,26.25,19.42,52.45,38.9,78.82,58.16,24.77,18.09,50.15,35.2,77.5,49.3,41.5,21.39,85.22,34.11,132.13,34.64,19.95.23,39.91.04,60.74.04,1.07,4.64,2.31,8.28,2.66,12,.43,4.63.13,9.32.12,13.99-.29,139.29-.58,278.58-.91,417.87-.02,7.88-.37,15.75-.59,24.42-4.88,1.17-8.57,2.5-12.34,2.89-125.36,12.79-249.72,31.72-372.53,60.25-122.26,28.4-241.23,66.86-356.4,116.81-31.16,13.51-61.92,28-90.44,46.72-9.86,6.47-20.04,8.63-32.19,6.71-19.03-3.01-38.38-4.62-57.65-5.45-64.68-2.78-129.2-.45-193.65,5.93-45.1,4.47-90.11,9.54-134.71,17.47-134.58,23.92-267.43,54.84-396.72,99.81-67.44,23.46-133.01,51.17-194.56,87.75-2.18,1.3-4.61,2.17-10.34,4.82Z" fill="#1bc197" stroke-width="0"/><path d="m4555.85,2068.51c2.29,18.05,2.74,619,.76,639.66-26.37,17.94-94.36,42.74-126.27,46-4.42-4.9-3.58-11.17-3.71-16.99-.23-9.99.35-19.99.33-29.99-.17-150.65-.37-301.3-.65-451.94-.01-7.2,1.1-14.65-2.23-21.69-7.93-.97-14.6,2.55-21.44,4.68-333.12,104.04-666.3,207.9-999.29,312.37-308.84,96.89-617.47,194.44-926.19,291.7-26.04,8.2-51.88,17.19-78.2,24.34-41.38,11.25-67.49,55.12-66.24,92.34.54,15.98.28,31.99.26,47.99-.23,151.98-.49,303.96-.73,455.95-.01,6.63,0,13.27,0,19.87-2.72,2-4.61,4.11-6.95,5.01-42.83,16.27-86.42,21.61-131.15,8.47-17.54-5.15-32.79-14.52-47.01-25.81-5.04-4-7.97-8.89-8.36-15.22-.45-7.31-1-14.63-.99-21.95.2-177.98.54-355.95.65-533.93.01-23.18,5.04-22.98-22.57-36.05-80.08-37.91-160.39-75.34-240.27-113.66-354.98-170.31-709.76-341.03-1064.78-511.26-205.44-98.51-411.19-196.38-616.79-294.55-7.18-3.43-14.28-7.02-21.38-10.51-3.7-11.67-1.67-23.05-2.1-34.23-.43-11.32-.46-22.67-.19-33.99.26-11.05-1.64-22.31,1.43-33.58,8.2-.5,13.72,3.72,19.54,6.41,99.84,45.99,199.46,92.45,299.41,138.18,352.56,161.33,705.2,322.49,1057.87,483.57,203.6,92.99,407.33,185.7,611.02,278.49,18.19,8.28,36.66,15.94,54.74,24.44,13.95,6.56,27.56,7.79,42.53,3.02,45.05-14.34,90.36-27.85,135.56-41.74,185.89-57.15,371.62-114.82,557.68-171.37,461.99-140.42,924.13-280.31,1386.2-420.46,49.71-15.08,99.26-30.7,149-45.68,19.76-5.95,39.82-10.9,59.77-16.18,3.14-.83,6.46-1.04,10.74-1.69Z" fill="#1bc197" stroke-width="0"/><path d="m4396.17,2273.6c.49,5.66,1.44,11.46,1.43,17.25-.17,95.99-.46,191.98-.75,287.97-.01,3.98-.35,7.95-.53,11.72-5.26,6.54-12.98,7.19-19.73,9.49-98.34,33.54-196.73,66.91-295.11,100.35-563.13,191.4-1126.26,382.82-1689.43,574.11-9.22,3.13-18.17,8.15-28.36,7.34-4.52-6.58-2.69-13.42-2.7-19.85-.17-67.33-.13-134.65-.19-201.98-.03-32,.26-64-.41-95.99-.35-16.71,4.73-31.36,12.73-45.52,6.2-10.98,14.98-17.88,27.27-21.64,51.59-15.78,103-32.14,154.47-48.29,605.58-190.09,1211.16-380.19,1816.77-570.18,7.46-2.34,14.7-6.49,24.54-4.77Z" fill="#1bc197" stroke-width="0"/><path d="m2105.53,2893.97c2.21,23.68,2.08,332.95.11,348.32-5.01,3.72-8.85-.44-12.65-2.37-43.35-22.03-86.59-44.26-129.87-66.42-589.92-301.99-1179.84-603.97-1769.75-905.97-7.05-3.61-13.99-7.43-21.73-11.55-.31-95.1-.42-189.49-.62-284.34,4.09.22,6.29-.26,7.89.51,642.2,307.2,1284.37,614.49,1926.62,921.82Z" fill="#1bc197" stroke-width="0"/><path d="m2106.76,3281.65v151.24c-6.27,4.25-10.51-.61-14.84-2.8-49.96-25.22-100.05-50.18-149.62-76.14-154.62-81-309.2-162.09-463.49-243.71-405.76-214.66-811.37-429.62-1217.06-644.41-6.95-3.68-13.62-8.19-22.89-10.47-1.42,4.95-2.92,9.08-3.77,13.35-7.17,35.92-14.62,71.8-21.1,107.85-2.7,15.04-3.83,30.43-4.68,45.71-1.24,22.31-13.32,35.26-33.62,42.17-18.25,6.21-36.66,6.24-55.15,1.8-13.64-3.28-26.62-8.4-38.41-15.56-4.95-6.67-4.21-14.25-4.82-21.44-5.28-61.75-10.49-123.5-15.59-185.26-.93-11.29-1.34-22.62-1.84-33.93-.05-1.1,1.02-2.24,2.18-4.62,21.92,12.36,44.26,24.18,69.85,26.53,17.16,1.57,34.39,2.04,51.39-.27,1.32-5.23-2.29-6.43-4.99-7.95-13.34-7.53-26.64-15.17-40.19-22.31-31.82-16.78-63.78-33.29-95.68-49.93-3.54-1.85-7.02-3.83-10.52-5.75-15.86-8.71-23.69-21.24-24.68-40.19-1.74-33.34-1.59-66.61-.91-99.93.55-27.32,1.44-54.65,1.3-81.97-2.02-383.27-4.21-766.55-6.31-1149.82C.77,875.18.4,776.52,0,677.87c-.03-6.59.3-13.18.49-20.75,17.15,2.1,31.39,9.47,46.33,14.39,14.55,4.79,29,9.88,43.37,15.18,14.88,5.5,30.42,9.33,45.6,17.24.15,8.73.42,17.29.43,25.85.44,343.29.81,686.57,1.3,1029.86.23,163.31.62,326.62,1.12,489.93.08,24.43-4.37,22.76,22.65,35.65,36.07,17.2,71.96,34.83,107.44,53.21,444.28,230.11,888.31,460.71,1332.82,690.39,110.67,57.18,222.78,111.57,334.24,167.2,50.67,25.29,101.38,50.48,152.05,75.75,5.92,2.95,11.72,6.12,18.9,9.88Z" fill="#1bc197" stroke-width="0"/><path d="m2297.85,337.11c.74,2.72,1.7,4.63,1.7,6.52-.73,220.61-1.54,441.21-2.4,661.82,0,1.9-.95,3.8-1.78,6.96-5.22-1.4-10.43-2.23-15.2-4.16-25.68-10.36-51.95-16.72-79.9-13.07-1.23.16-2.56-.51-5.07-1.07-.67-3.2-1.88-6.87-2.12-10.6-.38-5.97-.13-11.99-.12-17.99.08-149.3.17-298.59.26-447.89,0-7.96,0-15.91,0-22.57-5.56-7.05-11.79-5.39-17.62-5.18-23.29.85-46.58,2.32-69.87,2.52-51.89.45-99.99-13.11-144.43-40.05-27.42-16.62-53.12-35.61-78.53-55.04-45.59-34.85-92.83-67.15-143.47-94.36-65.03-34.93-133.47-60.51-206.08-73.85-71.13-13.07-142.84-15.78-215.04-10.09-92.35,7.29-181.63,27.79-268.09,60.43-163.77,61.83-308.1,154.3-432.32,277.7-35.45,35.22-69.45,71.9-104.03,107.99-26.31,27.46-53.68,53.73-83.6,77.3-39.84,31.38-83.99,53.81-133.4,65.71-6.38,1.54-12.62,3.66-20.16,5.88-1.51,51.55-.69,102.76-1,153.94-.32,50.65-.36,101.31-.57,151.96-.21,51.32-.5,102.64-.71,153.96-.21,51.32-.37,102.64-.51,153.96-.14,50.65-.25,101.31-.37,151.96-.12,51.27-.23,102.53-.35,154.46-17.18,7.75-35.03,10.06-52.22,14.51-16.62,4.3-33.06,9.62-50.74,11.56-.65-3.6-1.53-6.17-1.53-8.74-.06-351.21-.06-702.42-.06-1053.31,6.08-7.29,14.71-7.28,22.15-9.17,59.37-15.08,118.86-29.68,178.3-44.51,9.04-2.26,17.91-5.14,26.95-7.41,6.87-1.73,11.7-5.82,15.82-11.38,95.91-129.43,213.13-236.23,347.21-324.69,118.86-78.41,247.07-136.26,385.59-170.46,53.1-13.11,106.9-21.91,161.32-27.78,51.93-5.6,103.81-6.38,155.67-1.68,60.56,5.49,119.77,18.23,177.66,36.96,73.96,23.93,143.36,57.45,208.65,99.48,13.99,9,27.16,19.28,40.59,29.13,36.54,26.8,72.91,53.84,109.6,80.43,11.85,8.58,24.27,16.43,36.85,23.9,14.77,8.77,30.98,12.21,48.07,9.54,11.82-1.84,23.57-4.27,35.28-6.76,57.32-12.2,114.61-24.52,171.93-36.7,2.46-.52,5.13-.07,7.7-.07Z" fill="#1bc197" stroke-width="0"/><path d="m360.51,1453.29c5.7-2.98,8.49-4.64,11.44-5.94,120.2-53.19,243.11-98.63,371.12-129.45,66.09-15.91,132.8-28.48,200.07-38.33,55.41-8.11,111.03-14.34,166.88-17.85,39.88-2.5,79.89-3.43,119.85-4.16,15.26-.28,30.62,1.42,45.83,3.21,17.37,2.04,33.6,7.68,48.43,17.43,44.71,29.42,86.01,62.95,123.46,101.19,44.18,45.12,80.94,95.55,107.48,153.02,7.52,16.29,13.46,33.32,19.98,50.07.92,2.37,1.05,5.04,1.66,8.15-2.66,1.36-4.83,3.04-7.27,3.64-320.77,78.35-641.56,156.62-962.54,234.93-5.48-7.16-4.71-14.74-5.54-21.77-7.52-63.72-26.85-123.49-59.74-178.68-36.81-61.77-86.73-111.06-145.51-151.82-5.47-3.8-11.08-7.41-16.63-11.1-5.51-3.66-11.03-7.31-18.96-12.56Z" fill="#1bc197" stroke-width="0"/><path d="m2572.02,1350.89c-5.45,1.64-11.04,3.63-16.78,5-295.69,70.89-591.39,141.73-886.8,212.51-5.18-5.94-3.48-12.16-3.59-17.83-.53-26.75-3.77-53.17-10.2-79.1-19.75-79.66-65.19-141.98-130.16-190.82-31.13-23.4-65.3-41.09-102.44-52.97-3.76-1.2-7.42-2.75-12.83-4.78,4.12-3.11,6.75-5.84,9.95-7.39,10.79-5.2,21.54-10.62,32.74-14.8,71.09-26.55,142.18-53.09,215.23-73.99,83.26-23.83,167.42-43.62,252.67-58.96,70.16-12.62,140.71-22.35,211.52-30.26,27.13-3.03,54.39-4.98,81.6-7.19,17.6-1.43,34.39,2.22,50.71,8.71,31.07,12.37,60.38,28.15,88.07,46.75,93.28,62.66,165.32,143.95,213.86,245.61,2.82,5.9,7,11.43,6.44,19.5Z" fill="#1bc197" stroke-width="0"/><path d="m2362.65,3462.7c-.51-1.88-1.59-4.31-1.76-6.79-1.42-21.14-.09-129.52,1.8-143.03,673.82-227.62,1348.21-455.43,2022.62-683.18,2.4-.81,5.1-.75,9.07-1.28.86,3.48,2.22,6.44,2.23,9.4.12,35.32.06,70.64-.02,105.96,0,1.25-.72,2.5-1.11,3.75-.42.51-.81,1.07-1.28,1.53-.47.46-.96.99-1.55,1.2-672.52,237.46-1345.05,474.9-2017.58,712.32-1.87.66-3.84,1.08-5.78,1.53-.64.15-1.33.1-1.99.05-.65-.04-1.3-.13-1.92-.32-.64-.19-1.23-.51-2.72-1.15Z" fill="#1bc197" stroke-width="0"/><path d="m4503.09,2037.39c-6.07,2.17-12.05,4.6-18.21,6.47-75.21,22.79-150.43,45.53-225.67,68.22-453.35,136.71-906.74,273.29-1360.04,410.16-201.47,60.83-402.76,122.25-604.1,183.47-12.1,3.68-24.1,7.74-35.97,12.12-11.92,4.4-22.72,3.56-34.57-1.81-441.09-199.92-882.26-399.68-1323.54-599.2-217.91-98.52-436.04-196.53-654.08-294.77-12.75-5.74-25.62-11.23-38.28-17.18-4.6-2.16-8.73-5.32-12.48-7.66.07-5.59,3.6-4.74,5.77-5.16,19.61-3.83,39.25-7.54,58.9-11.13,6.54-1.2,12.75-1.58,19.43,1.44,57.63,26.1,115.68,51.28,173.15,77.71,318.34,146.41,638.36,289.08,958.16,432.29,269.94,120.88,538.91,243.89,808.06,366.51,16.37,7.46,29.9,8.06,47.04,2.14,42.77-14.78,86.48-26.84,129.85-39.84,296.65-88.88,593.31-177.74,889.98-266.56,356.01-106.58,712.03-213.13,1068.06-319.64,23.61-7.06,47.44-13.39,70.98-20.68,10.79-3.34,20.55-2.85,30.98,1.58,15.26,6.48,31.03,11.78,46.58,17.58,0,1.31.01,2.62.02,3.94Z" fill="#1bc197" stroke-width="0"/><path d="m2800.22,1458.67c-29.38,7.41-56.45,14.32-83.56,21.05-315.43,78.4-630.86,156.79-946.31,235.14-276.02,68.56-552.05,137.03-828.07,205.6-45.89,11.4-91.74,22.97-137.54,34.72-13.93,3.57-26.97,4.15-40.69-2.23-32-14.88-64.54-28.61-96.84-42.82-5.43-2.39-10.81-4.9-18.19-8.26,4.01-2.53,6.27-4.82,8.95-5.53,35.42-9.33,70.81-18.79,106.37-27.56,224.41-55.29,448.8-110.61,673.3-165.53,168.86-41.31,337.89-81.89,506.78-123.08,185.07-45.13,370.06-90.58,555.08-135.89,28.46-6.97,56.95-13.82,85.36-20.98,46.54-11.73,92.64-8.89,138.09,5.02,22.89,7,45.26,15.74,67.79,23.92,2.81,1.02,5.12,3.41,9.48,6.43Z" fill="#1bc197" stroke-width="0"/><path d="m2295.32,296c-3.72,1.33-7.82,3.35-12.16,4.26-57.37,12.02-114.78,23.86-172.16,35.83-9.78,2.04-19.49,4.4-29.2,6.74-10.14,2.44-19.7,1.34-29.04-3.49-16.05-8.3-31.16-18-45.07-29.52-37.52-31.06-77.06-59.41-116.8-87.5-92.01-65.04-193.11-110.03-302.68-135.73-90.23-21.16-181.66-26.53-274.08-19.72-133.74,9.86-261.12,44.38-383.38,98.22-85.64,37.71-165.93,85.15-242.02,139.65-68.99,49.42-133.74,103.87-192.93,164.68-36.73,37.73-72.64,76.33-104.67,118.22-8.35,10.93-18.34,16.55-31.09,19.63-66.69,16.07-133.37,32.2-199.91,48.85-11.5,2.88-21.79,2.51-32.94-1.45-33.26-11.81-66.83-22.74-100.25-34.13-7.45-2.54-15.28-4.48-21.41-10,3.72-5.78,9.41-5.46,14.42-6.62,68.78-15.94,137.51-32.1,206.4-47.57,14.91-3.35,27.6-9.12,37.41-20.95,4.68-5.64,9.92-10.81,14.56-16.48,42.31-51.66,89.07-99.32,136.63-145.92,77.9-76.32,164.93-141.23,258.69-197.09C806.05,97.02,948.45,44.31,1099.08,13.08c65.09-13.5,130.58-16.12,196.87-9.84,99.82,9.45,197.96,26.66,293.86,56.23,92.26,28.45,179.13,68.32,260.01,121.19,41.34,27.03,81.16,56.09,118.61,88.28,8.83,7.59,17.36,10.74,29.07,8.49,42.5-8.18,85.27-14.99,127.68-23.58,18.75-3.8,36.97-4.42,55.37.03,11,2.66,21.79,6.12,32.73,9.03,17.37,4.61,34.82,8.92,52.16,13.64,7.68,2.09,15.26,4.66,22.71,7.47,4.58,1.74,7.69,5.13,7.14,11.98Z" fill="#1bc197" stroke-width="0"/><path d="m2145.39,3517.32c23.08,13.23,43.31,24.34,66.67,28.5,23.45,4.17,46.42,2.5,69.38-2.32,22.99-4.83,44.39-13.95,64.37-25.18,5.96,1.35,5.87,5.55,5.42,9.51-2.58,22.49-5.26,44.97-8.01,67.44-6.24,50.88-12.54,101.76-18.8,152.63-2.52,20.49-5.21,40.96-7.42,61.48-1.35,12.49-6.04,23.18-15.37,31.54-7.92,7.1-15.77,14.44-24.49,20.45-19.78,13.63-40.61,15.11-62.17,3.6-18.11-9.66-32.35-23.61-43.23-40.57-4.07-6.35-5.25-14.95-6.37-22.72-1.81-12.51-2.78-25.16-3.6-37.78-3.31-50.5-6.31-101.03-9.65-151.53-1.76-26.58-3.99-53.12-5.97-79.69-.29-3.93-.39-7.87-.74-15.38Z" fill="#1bc197" stroke-width="0"/><path d="m564.89,1826.45c-87.66-35.61-171.35-69.61-254.81-103.51-4.23-8.04-4.33-16.07-4.52-23.99-.41-17.3-.79-34.62-.74-51.92.14-50.6.47-101.2.8-151.8.04-6.49.55-12.98.85-19.62,34.3,6.05,114.19,64.63,156.61,114.18,57.47,67.12,89.14,145.33,101.8,236.67Z" fill="#1bc197" stroke-width="0"/><path d="m4337.08,2798.12c19.45-5.81,38.39-11.69,57.5-16.97,3.52-.97,8.07-.4,11.53.99,19,7.61,38.03,5.24,56.83.14,13.43-3.64,26.47-8.77,39.64-13.34,6.19-2.15,12.28-4.54,17.86-6.62,6.14,3.95,3.91,9.01,3.55,13.21-2.82,33.14-5.91,66.25-8.95,99.37-3.35,36.43-6.76,72.85-10.1,109.28-1.52,16.56-3.22,33.11-4.23,49.7-.45,7.32-3.33,12.45-9.08,16.7-27.61,20.38-58.2,25.96-90.76,16.25-26.6-7.93-32.56-10.44-36.28-42.39-5.39-46.23-11.96-92.32-18.05-138.47-3.13-23.73-6.43-47.45-9.38-71.2-.63-5.11-.09-10.36-.09-16.64Z" fill="#1bc197" stroke-width="0"/><path d="m1356.16,1252.51c18.24-2.6,31.68.73,44.89,5.03,42.93,13.98,81.35,36.13,115.49,65.54,47.92,41.28,83.09,91.25,101.66,152.19,7.02,23.04,11.53,46.54,10.06,70.72-.6,9.88-2.87,19.67-4.78,29.43-.3,1.53-2.76,3.72-4.18,3.7-2.3-.04-5.3-1.07-6.69-2.76-2.01-2.46-3.17-5.77-4.14-8.89-30.73-98.95-90.32-178.44-166.99-246.08-21.92-19.34-45.56-36.72-68.39-55.02-4.57-3.66-9.07-7.42-16.92-13.85Z" fill="#1bc197" stroke-width="0"/></svg>