<svg xmlns="http://www.w3.org/2000/svg" xmlns:xlink="http://www.w3.org/1999/xlink" width="52" height="52" viewBox="0 0 52 52">
  <defs>
    <filter id="Ellipse_4" x="0" y="0" width="52" height="52" filterUnits="userSpaceOnUse">
      <feOffset dy="6" input="SourceAlpha"/>
      <feGaussianBlur stdDeviation="6" result="blur"/>
      <feFlood flood-opacity="0.104" result="color"/>
      <feComposite operator="out" in="SourceGraphic" in2="blur"/>
      <feComposite operator="in" in="color"/>
      <feComposite operator="in" in2="SourceGraphic"/>
    </filter>
    <linearGradient id="linear-gradient" x1="0.5" x2="0.5" y2="1" gradientUnits="objectBoundingBox">
      <stop offset="0" stop-color="#35ebbd"/>
      <stop offset="1" stop-color="#1ca180"/>
    </linearGradient>
    <filter id="Ellipse_5" x="4" y="4" width="44" height="44" filterUnits="userSpaceOnUse">
      <feOffset dy="8" input="SourceAlpha"/>
      <feGaussianBlur stdDeviation="6" result="blur-2"/>
      <feFlood flood-opacity="0.161" result="color-2"/>
      <feComposite operator="out" in="SourceGraphic" in2="blur-2"/>
      <feComposite operator="in" in="color-2"/>
      <feComposite operator="in" in2="SourceGraphic"/>
    </filter>
    <clipPath id="clip-path">
      <rect id="Rectangle_78" data-name="Rectangle 78" width="34.482" height="16.159" fill="#fff"/>
    </clipPath>
  </defs>
  <g id="beds-icon" transform="translate(0 0.485)">
    <g data-type="innerShadowGroup">
      <circle id="Ellipse_4-2" data-name="Ellipse 4" cx="26" cy="26" r="26" transform="translate(0 -0.485)" fill="rgba(117,161,185,0.23)" opacity="0.85"/>
      <g transform="matrix(1, 0, 0, 1, 0, -0.49)" filter="url(#Ellipse_4)">
        <circle id="Ellipse_4-3" data-name="Ellipse 4" cx="26" cy="26" r="26" fill="#fff" opacity="0.85"/>
      </g>
    </g>
    <circle id="Ellipse_3" data-name="Ellipse 3" cx="23" cy="23" r="23" transform="translate(3 2.515)" fill="#fff"/>
    <g data-type="innerShadowGroup">
      <circle id="Ellipse_5-2" data-name="Ellipse 5" cx="22" cy="22" r="22" transform="translate(4 3.515)" fill="url(#linear-gradient)"/>
      <g transform="matrix(1, 0, 0, 1, 0, -0.49)" filter="url(#Ellipse_5)">
        <circle id="Ellipse_5-3" data-name="Ellipse 5" cx="22" cy="22" r="22" transform="translate(4 4)" fill="#fff"/>
      </g>
    </g>
    <g id="Group_102" data-name="Group 102" transform="translate(8.759 16.834)">
      <g id="Group_62" data-name="Group 62" clip-path="url(#clip-path)">
        <path id="Path_66" data-name="Path 66" d="M336.584,157.561V155.79a1.2,1.2,0,0,0-1.121-1.267h-14.5a1.2,1.2,0,0,0-1.121,1.267v1.771Z" transform="translate(-307.989 -148.795)" fill="#fff"/>
        <path id="Path_67" data-name="Path 67" d="M154.4,126.735a3.658,3.658,0,0,0,.126-.951,2.919,2.919,0,1,0-5.794,0,3.658,3.658,0,0,0,.126.951Z" transform="translate(-143.215 -117.969)" fill="#fff"/>
        <path id="Path_68" data-name="Path 68" d="M32.473,5.7a2.158,2.158,0,0,0-2.009,2.271V9.4H4.018V2.271A2.158,2.158,0,0,0,2.009,0,2.158,2.158,0,0,0,0,2.271V16.159H4.018V14.153H30.464v2.007h4.018V7.974A2.158,2.158,0,0,0,32.473,5.7" fill="#fff"/>
      </g>
    </g>
  </g>
</svg>
