<svg xmlns="http://www.w3.org/2000/svg" width="43.947" height="43.947" viewBox="0 0 43.947 43.947">
  <path id="blog-icon-v2" d="M43.676,18.408H41.213a3.029,3.029,0,0,1-2.935-2.747c0-7.84-6.32-13.733-14.214-13.733h-7.2A14.246,14.246,0,0,0,2.571,16.119v15.57A14.238,14.238,0,0,0,16.861,45.875H32.244A14.22,14.22,0,0,0,46.517,31.689V21.63a3.187,3.187,0,0,0-2.841-3.222ZM16.3,12.915h8.24a2.747,2.747,0,1,1,0,5.493H16.3a2.747,2.747,0,0,1,0-5.493Zm16.48,21.973H16.3a2.747,2.747,0,1,1,0-5.493h16.48a2.747,2.747,0,0,1,0,5.493Z" transform="translate(-2.571 -1.928)" fill="#f80"/>
</svg>
