<svg xmlns="http://www.w3.org/2000/svg" xmlns:xlink="http://www.w3.org/1999/xlink" width="51" height="51" viewBox="0 0 51 51">
  <defs>
    <radialGradient id="radial-gradient" cx="0.5" cy="0.5" r="0.5" gradientUnits="objectBoundingBox">
      <stop offset="0" stop-color="#b8ffed"/>
      <stop offset="1" stop-color="#10b98f"/>
    </radialGradient>
    <linearGradient id="linear-gradient" x1="0.107" y1="0.21" x2="0.931" y2="0.808" gradientUnits="objectBoundingBox">
      <stop offset="0" stop-color="#fff"/>
      <stop offset="1" stop-color="#fff" stop-opacity="0.169"/>
    </linearGradient>
    <radialGradient id="radial-gradient-2" cx="0.5" cy="0.5" r="0.5" gradientUnits="objectBoundingBox">
      <stop offset="0" stop-color="#9ae7d3"/>
      <stop offset="1" stop-color="#0d9271"/>
    </radialGradient>
    <filter id="Icon_metro-bookmarks" x="15.95" y="12.766" width="19.101" height="25.468" filterUnits="userSpaceOnUse">
      <feOffset dy="3" input="SourceAlpha"/>
      <feGaussianBlur stdDeviation="3" result="blur"/>
      <feFlood flood-color="#876526" result="color"/>
      <feComposite operator="out" in="SourceGraphic" in2="blur"/>
      <feComposite operator="in" in="color"/>
      <feComposite operator="in" in2="SourceGraphic"/>
    </filter>
  </defs>
  <g id="bookmark-icon-filled" transform="translate(-1502.741 -648.741)">
    <circle id="Ellipse_185" data-name="Ellipse 185" cx="25.5" cy="25.5" r="25.5" transform="translate(1502.741 648.741)" fill="url(#radial-gradient)"/>
    <circle id="Ellipse_186" data-name="Ellipse 186" cx="25.5" cy="25.5" r="25.5" transform="translate(1502.741 648.741)" fill="#fff" opacity="0"/>
    <circle id="Ellipse_188" data-name="Ellipse 188" cx="25.5" cy="25.5" r="25.5" transform="translate(1502.741 648.741)" opacity="0.39" fill="url(#linear-gradient)"/>
    <g id="Ellipse_187" data-name="Ellipse 187" transform="translate(1504.741 650.741)" stroke="#79d6bf" stroke-width="2" fill="url(#radial-gradient-2)">
      <circle cx="23.5" cy="23.5" r="23.5" stroke="none"/>
      <circle cx="23.5" cy="23.5" r="22.5" fill="none"/>
    </g>
    <g data-type="innerShadowGroup">
      <path id="Icon_metro-bookmarks-2" data-name="Icon metro-bookmarks" d="M9.61,5.112V27.4l7.959-7.959L25.528,27.4V5.112ZM22.344,1.928H6.427V24.213l1.592-1.592V3.52H22.344Z" transform="translate(1512.264 659.579)" fill="#ffe2ad"/>
      <g transform="matrix(1, 0, 0, 1, 1502.74, 648.74)" filter="url(#Icon_metro-bookmarks)">
        <path id="Icon_metro-bookmarks-3" data-name="Icon metro-bookmarks" d="M9.61,5.112V27.4l7.959-7.959L25.528,27.4V5.112ZM22.344,1.928H6.427V24.213l1.592-1.592V3.52H22.344Z" transform="translate(9.52 10.84)" fill="#fff"/>
      </g>
    </g>
  </g>
</svg>
