<svg id="building-icon" xmlns="http://www.w3.org/2000/svg" width="50.684" height="55.928" viewBox="0 0 50.684 55.928">
  <rect id="Rectangle_7841" data-name="Rectangle 7841" width="3.495" height="53.306" transform="translate(13.982 2.622)" fill="#ffcf80"/>
  <rect id="Rectangle_7842" data-name="Rectangle 7842" width="3.495" height="52.432" transform="translate(33.207 3.495)" fill="#ffcf80"/>
  <rect id="Rectangle_7843" data-name="Rectangle 7843" width="1.748" height="4.369" transform="translate(24.468 51.558)" fill="#ffcf80"/>
  <rect id="Rectangle_7844" data-name="Rectangle 7844" width="1.748" height="4.369" transform="translate(5.243 51.558)" fill="#ffcf80"/>
  <path id="Path_62458" data-name="Path 62458" d="M24,439.865a.874.874,0,0,0,.874.874H27.5V435.5a.874.874,0,0,1,.874-.874h3.5a.874.874,0,0,1,.874.874v5.243h3.5V432H24Z" transform="translate(-24 -384.811)" fill="#ffcf80"/>
  <rect id="Rectangle_7845" data-name="Rectangle 7845" width="1.748" height="4.369" transform="translate(43.694 51.558)" fill="#ffcf80"/>
  <path id="Path_62459" data-name="Path 62459" d="M376,440.739h3.5V435.5a.874.874,0,0,1,.874-.874h3.5a.874.874,0,0,1,.874.874v5.243h2.622a.874.874,0,0,0,.874-.874V432H376Z" transform="translate(-337.55 -384.811)" fill="#ffcf80"/>
  <rect id="Rectangle_7846" data-name="Rectangle 7846" width="1.748" height="3.495" transform="translate(24.468 6.991)" fill="#ffcf80"/>
  <rect id="Rectangle_7847" data-name="Rectangle 7847" width="1.748" height="3.495" transform="translate(24.468 17.477)" fill="#ffcf80"/>
  <rect id="Rectangle_7848" data-name="Rectangle 7848" width="1.748" height="3.495" transform="translate(24.468 27.964)" fill="#ffcf80"/>
  <rect id="Rectangle_7849" data-name="Rectangle 7849" width="1.748" height="3.495" transform="translate(24.468 38.45)" fill="#ffcf80"/>
  <path id="Path_62460" data-name="Path 62460" d="M211.36,0H200.874A.874.874,0,0,0,200,.874V55.928h3.5V50.685a.874.874,0,0,1,.874-.874h3.5a.874.874,0,0,1,.874.874v5.243h3.5V.874A.874.874,0,0,0,211.36,0Zm-2.622,43.694H203.5a.874.874,0,1,1,0-1.748V37.576a.874.874,0,0,1,.874-.874h3.5a.874.874,0,0,1,.874.874v4.369a.874.874,0,0,1,0,1.748Zm0-10.486H203.5a.874.874,0,1,1,0-1.748V27.09a.874.874,0,0,1,.874-.874h3.5a.874.874,0,0,1,.874.874v4.369a.874.874,0,0,1,0,1.748Zm0-10.486H203.5a.874.874,0,1,1,0-1.748V16.6a.874.874,0,0,1,.874-.874h3.5a.874.874,0,0,1,.874.874v4.369a.874.874,0,0,1,0,1.748Zm0-10.486H203.5a.874.874,0,1,1,0-1.748V6.117a.874.874,0,0,1,.874-.874h3.5a.874.874,0,0,1,.874.874v4.369a.874.874,0,0,1,0,1.748Z" transform="translate(-180.775)" fill="#ffcf80"/>
  <path id="Path_62461" data-name="Path 62461" d="M35.36,0H24.874A.874.874,0,0,0,24,.874V45.441H36.234V.874A.874.874,0,0,0,35.36,0ZM32.739,43.694H27.5a.874.874,0,1,1,0-1.748V37.576a.874.874,0,0,1,.874-.874h3.5a.874.874,0,0,1,.874.874v4.369a.874.874,0,0,1,0,1.748Zm0-10.486H27.5a.874.874,0,1,1,0-1.748V27.09a.874.874,0,0,1,.874-.874h3.5a.874.874,0,0,1,.874.874v4.369a.874.874,0,0,1,0,1.748Zm0-10.486H27.5a.874.874,0,0,1,0-1.748V16.6a.874.874,0,0,1,.874-.874h3.5a.874.874,0,0,1,.874.874v4.369a.874.874,0,1,1,0,1.748Zm0-10.486H27.5a.874.874,0,0,1,0-1.748V6.117a.874.874,0,0,1,.874-.874h3.5a.874.874,0,0,1,.874.874v4.369a.874.874,0,0,1,0,1.748Z" transform="translate(-24)" fill="#ffcf80"/>
  <rect id="Rectangle_7850" data-name="Rectangle 7850" width="1.748" height="3.495" transform="translate(5.243 6.991)" fill="#ffcf80"/>
  <rect id="Rectangle_7851" data-name="Rectangle 7851" width="1.748" height="3.495" transform="translate(5.243 17.477)" fill="#ffcf80"/>
  <rect id="Rectangle_7852" data-name="Rectangle 7852" width="1.748" height="3.495" transform="translate(5.243 27.964)" fill="#ffcf80"/>
  <rect id="Rectangle_7853" data-name="Rectangle 7853" width="1.748" height="3.495" transform="translate(5.243 38.45)" fill="#ffcf80"/>
  <path id="Path_62462" data-name="Path 62462" d="M387.36,0H376.874A.874.874,0,0,0,376,.874V45.441h12.234V.874A.874.874,0,0,0,387.36,0Zm-2.622,43.694H379.5a.874.874,0,0,1,0-1.748V37.576a.874.874,0,0,1,.874-.874h3.5a.874.874,0,0,1,.874.874v4.369a.874.874,0,0,1,0,1.748Zm0-10.486H379.5a.874.874,0,0,1,0-1.748V27.09a.874.874,0,0,1,.874-.874h3.5a.874.874,0,0,1,.874.874v4.369a.874.874,0,0,1,0,1.748Zm0-10.486H379.5a.874.874,0,0,1,0-1.748V16.6a.874.874,0,0,1,.874-.874h3.5a.874.874,0,0,1,.874.874v4.369a.874.874,0,0,1,0,1.748Zm0-10.486H379.5a.874.874,0,0,1,0-1.748V6.117a.874.874,0,0,1,.874-.874h3.5a.874.874,0,0,1,.874.874v4.369a.874.874,0,0,1,0,1.748Z" transform="translate(-337.55)" fill="#ffcf80"/>
  <rect id="Rectangle_7854" data-name="Rectangle 7854" width="1.748" height="3.495" transform="translate(43.694 38.45)" fill="#ffcf80"/>
  <rect id="Rectangle_7855" data-name="Rectangle 7855" width="1.748" height="3.495" transform="translate(43.694 17.477)" fill="#ffcf80"/>
  <rect id="Rectangle_7856" data-name="Rectangle 7856" width="1.748" height="3.495" transform="translate(43.694 6.991)" fill="#ffcf80"/>
  <rect id="Rectangle_7857" data-name="Rectangle 7857" width="1.748" height="3.495" transform="translate(43.694 27.964)" fill="#ffcf80"/>
</svg>
