<svg xmlns="http://www.w3.org/2000/svg" width="18.947" height="20" viewBox="0 0 18.947 20">
  <path id="building" d="M17.132,12.474V6.158L13.974,3,10.816,6.158V8.263H4.5V23H23.447V12.474ZM8.711,20.895H6.605V18.789H8.711Zm0-4.211H6.605V14.579H8.711Zm0-4.211H6.605V10.368H8.711Zm6.316,8.421H12.921V18.789h2.105Zm0-4.211H12.921V14.579h2.105Zm0-4.211H12.921V10.368h2.105Zm0-4.211H12.921V6.158h2.105Zm6.316,12.632H19.237V18.789h2.105Zm0-4.211H19.237V14.579h2.105Z" transform="translate(-4.5 -3)" fill="#1bc197"/>
</svg>
