<svg xmlns="http://www.w3.org/2000/svg" xmlns:xlink="http://www.w3.org/1999/xlink" width="132" height="53" viewBox="0 0 132 53">
  <defs>
    <linearGradient id="linear-gradient" x1="0.864" y1="0.255" x2="0.075" y2="0.749" gradientUnits="objectBoundingBox">
      <stop offset="0" stop-color="#6cd7bc"/>
      <stop offset="1" stop-color="#0c8d6c"/>
    </linearGradient>
    <linearGradient id="linear-gradient-2" x1="0.965" y1="0.089" x2="-0.269" y2="1.266" gradientUnits="objectBoundingBox">
      <stop offset="0" stop-color="#39c6a2"/>
      <stop offset="1" stop-color="#0d7b5e"/>
    </linearGradient>
    <filter id="Path_62725" x="2.978" y="2" width="48.884" height="48.884" filterUnits="userSpaceOnUse">
      <feOffset dy="3" input="SourceAlpha"/>
      <feGaussianBlur stdDeviation="3" result="blur"/>
      <feFlood flood-opacity="0.42" result="color"/>
      <feComposite operator="out" in="SourceGraphic" in2="blur"/>
      <feComposite operator="in" in="color"/>
      <feComposite operator="in" in2="SourceGraphic"/>
    </filter>
    <clipPath id="clip-path">
      <path id="Path_30" data-name="Path 30" d="M17.05,0,0,14.593H5.816V25.545H16.043V14.593a12.279,12.279,0,0,1,2.014-6.338,32.175,32.175,0,0,1,3.856-4.194Z" fill="url(#linear-gradient)"/>
    </clipPath>
    <clipPath id="clip-path-2">
      <path id="Path_31" data-name="Path 31" d="M91.006,107.189c0-2.939-3.82-4.655-6.684-4.655,0,2.716,1.751,4.655,6.684,4.655" transform="translate(-84.322 -102.534)" fill="#fff"/>
    </clipPath>
    <clipPath id="clip-path-3">
      <path id="Path_32" data-name="Path 32" d="M190.827,25.1l.206-.092c.137-.063.273-.129.41-.2s.272-.14.408-.215.254-.143.381-.217l.05-.031.176-.107.19-.119.02-.013.17-.111.045-.03c.107-.072.214-.147.32-.222l.071-.051.163-.118c.008-.007.016-.013.023-.018.062-.046.123-.092.183-.139s.129-.1.192-.151.128-.1.192-.156l.18-.151.021-.019q.089-.076.176-.153c.063-.055.124-.111.186-.167l.006-.006.177-.166c.061-.058.122-.116.182-.176s.12-.118.179-.179q.357-.363.694-.757.066-.075.129-.153.167-.2.325-.406c.031-.038.06-.077.09-.116.09-.118.177-.238.264-.359.051-.072.192-.225.242-.3l1.2.969a11.141,11.141,0,0,1-7.255,4.127Zm.71-11.369a11.91,11.91,0,0,1,5.73-.72,13.1,13.1,0,0,1-2.425,6.574c-2.205,3.4-5.369,6.257-7.063,6.257,0-3.193,2.127-6.083,4.094-8.148.789-.83,1.553-1.526,2.143-2.056a12.761,12.761,0,0,0-2.85,1.6c-3.062,2.277-4.87,5.646-4.87,7.942V36.136h10.227V25.184l6.878.027-6.515-5.2c1.59-2.324,2.008-4.8,2.008-8.281a14.373,14.373,0,0,0-7.356,2" transform="translate(-186.295 -11.728)" fill="url(#linear-gradient-2)"/>
    </clipPath>
    <clipPath id="clip-path-4">
      <rect id="Rectangle_35" data-name="Rectangle 35" width="41.038" height="25.556" fill="none"/>
    </clipPath>
    <clipPath id="clip-path-5">
      <path id="Path_34" data-name="Path 34" d="M238.847,97.424c-.087.121-.174.241-.264.359-.029.039-.059.078-.09.116q-.158.207-.325.406-.063.078-.129.153-.336.395-.694.757c-.059.061-.119.12-.179.179s-.121.118-.182.176l-.177.166-.006.006c-.062.056-.123.113-.186.167s-.116.1-.176.153l-.021.019-.18.151c-.064.053-.127.1-.192.156s-.127.1-.192.151-.122.093-.183.139c-.007.006-.015.011-.023.018l-.163.118-.071.051c-.107.075-.213.15-.32.222l-.045.03-.17.111-.02.013-.19.119-.176.107-.05.031q-.191.111-.381.217c-.136.075-.272.146-.408.215s-.273.134-.41.2l-.206.092,0,0a11.141,11.141,0,0,0,7.255-4.127l-1.2-.969c-.05.074-.191.227-.243.3" transform="translate(-233.037 -97.125)" fill="none"/>
    </clipPath>
    <clipPath id="clip-path-6">
      <rect id="Rectangle_8241" data-name="Rectangle 8241" width="60.542" height="26.673" fill="none"/>
    </clipPath>
  </defs>
  <g id="dashboard-logo-mobile" transform="translate(2.978 2.074)">
    <rect id="Rectangle_8242" data-name="Rectangle 8242" width="132" height="53" transform="translate(-2.978 -2.074)" fill="#fff" opacity="0"/>
    <g data-type="innerShadowGroup">
      <path id="Path_62725-2" data-name="Path 62725" d="M24.442,0A24.442,24.442,0,1,1,0,24.442,24.442,24.442,0,0,1,24.442,0Z" transform="translate(0 -0.074)" fill="#f5ebd9"/>
      <g transform="matrix(1, 0, 0, 1, -2.98, -2.07)" filter="url(#Path_62725)">
        <path id="Path_62725-3" data-name="Path 62725" d="M24.442,0A24.442,24.442,0,1,1,0,24.442,24.442,24.442,0,0,1,24.442,0Z" transform="translate(2.98 2)" fill="#fff"/>
      </g>
    </g>
    <g id="Group_29" data-name="Group 29" transform="translate(7.845 9.658)">
      <g id="Group_28" data-name="Group 28" clip-path="url(#clip-path)">
        <rect id="Rectangle_32" data-name="Rectangle 32" width="32.566" height="30.893" transform="translate(-10.065 20.636) rotate(-64)" fill="url(#linear-gradient)"/>
      </g>
    </g>
    <g id="Group_31" data-name="Group 31" transform="translate(16.018 19.597)">
      <g id="Group_30" data-name="Group 30" clip-path="url(#clip-path-2)">
        <rect id="Rectangle_33" data-name="Rectangle 33" width="7.113" height="8.048" transform="translate(-1.834 3.76) rotate(-64)" fill="#fff"/>
      </g>
    </g>
    <g id="Group_33" data-name="Group 33" transform="translate(25.902 10.795)">
      <g id="Group_32" data-name="Group 32" clip-path="url(#clip-path-3)">
        <rect id="Rectangle_34" data-name="Rectangle 34" width="27.017" height="29.691" transform="matrix(0.866, -0.5, 0.5, 0.866, -10.569, 6.102)" fill="url(#linear-gradient-2)"/>
      </g>
    </g>
    <g id="Group_35" data-name="Group 35" transform="translate(7.845 9.658)">
      <g id="Group_34" data-name="Group 34" clip-path="url(#clip-path-4)">
        <path id="Path_33" data-name="Path 33" d="M240.356,32.387v0" transform="translate(-229.216 -29.246)" fill="none" stroke="#7cb732" stroke-linecap="round" stroke-linejoin="round" stroke-width="0"/>
      </g>
    </g>
    <g id="Group_37" data-name="Group 37" transform="translate(30.433 19.073)">
      <g id="Group_36" data-name="Group 36" clip-path="url(#clip-path-5)">
        <rect id="Rectangle_36" data-name="Rectangle 36" width="8.831" height="8.041" transform="translate(-2.207 1.274) rotate(-30)" fill="#fff"/>
      </g>
    </g>
    <g id="text" transform="translate(60.642 10.926)">
      <path id="Path_63349" data-name="Path 63349" d="M.24,6.583v7.86H5.061V13.1H2.1V11.1H4.516v-1.3H2.1V7.91H4.868l.193-1.327Z" transform="translate(-0.191 -5.244)" fill="#f5ebd9"/>
      <g id="Group_14935" data-name="Group 14935">
        <g id="Group_14934" data-name="Group 14934" clip-path="url(#clip-path-6)">
          <path id="Path_63350" data-name="Path 63350" d="M34,16.487v4.4H32.21V16.793c0-.635-.216-.805-.567-.805-.4,0-.737.284-1.043.783v4.117H28.807V14.865h1.554l.136.726a2.272,2.272,0,0,1,1.837-.919A1.6,1.6,0,0,1,34,16.487" transform="translate(-22.95 -11.689)" fill="#f5ebd9"/>
          <path id="Path_63351" data-name="Path 63351" d="M60.764,21.643H58.643L56.7,15.62h1.951l1.066,4.662,1.112-4.662h1.826Z" transform="translate(-45.175 -12.444)" fill="#f5ebd9"/>
          <path id="Path_63352" data-name="Path 63352" d="M90.347,1.021a1.061,1.061,0,0,1-2.121,0,1.061,1.061,0,0,1,2.121,0M90.188,9.2H88.4V3.176h1.792Z" transform="translate(-70.289)" fill="#f5ebd9"/>
          <path id="Path_63353" data-name="Path 63353" d="M108.552,14.863l-.284,1.735a2.246,2.246,0,0,0-.544-.079c-.737,0-1.043.533-1.248,1.429v3.028h-1.792V14.954h1.554l.159,1.168a1.7,1.7,0,0,1,1.554-1.338,2.08,2.08,0,0,1,.6.079" transform="translate(-83.401 -11.778)" fill="#f5ebd9"/>
          <path id="Path_63354" data-name="Path 63354" d="M130.167,17.882a2.87,2.87,0,0,1-2.949,3.2c-1.826,0-2.949-1.18-2.949-3.21a2.87,2.87,0,0,1,2.949-3.2c1.838,0,2.949,1.18,2.949,3.21m-4.038-.011c0,1.338.363,1.894,1.089,1.894s1.089-.578,1.089-1.883c0-1.338-.363-1.894-1.089-1.894s-1.089.578-1.089,1.883" transform="translate(-99.004 -11.689)" fill="#f5ebd9"/>
          <path id="Path_63355" data-name="Path 63355" d="M161.583,12.15a4.716,4.716,0,0,1-1.735.238,1.564,1.564,0,0,1,1.134,1.554c0,1.168-.964,2.019-2.529,2.019a3.331,3.331,0,0,1-.692-.068.385.385,0,0,0-.193.34c0,.181.079.363.658.363h.907c1.406,0,2.3.737,2.3,1.747,0,1.236-1.089,2-3.153,2-2.28,0-2.881-.749-2.881-1.94h1.611c0,.522.227.749,1.315.749,1.055,0,1.3-.295,1.3-.68,0-.352-.261-.59-.862-.59H157.9c-1.316,0-1.849-.544-1.849-1.191a1.434,1.434,0,0,1,.715-1.157,1.774,1.774,0,0,1-1.078-1.724c0-1.361,1.066-2.2,2.643-2.2a4.769,4.769,0,0,0,2.836-.783Zm-4.117,1.633c0,.658.363,1.021.907,1.021.59,0,.907-.352.907-1.044,0-.669-.306-.975-.907-.975a.885.885,0,0,0-.907,1" transform="translate(-123.807 -8.623)" fill="#f5ebd9"/>
          <path id="Path_63356" data-name="Path 63356" d="M193.079,14.863,192.8,16.6a2.246,2.246,0,0,0-.544-.079c-.737,0-1.043.533-1.248,1.429v3.028h-1.792V14.954h1.554l.159,1.168a1.7,1.7,0,0,1,1.554-1.338,2.08,2.08,0,0,1,.6.079" transform="translate(-150.743 -11.778)" fill="#f5ebd9"/>
          <path id="Path_63357" data-name="Path 63357" d="M214.353,18.4h-3.72c.113,1.078.624,1.372,1.361,1.372a2.44,2.44,0,0,0,1.44-.533l.737,1a3.7,3.7,0,0,1-2.348.839A2.848,2.848,0,0,1,208.8,17.9c0-1.8.987-3.232,2.813-3.232,1.724,0,2.779,1.134,2.779,3.085a5.994,5.994,0,0,1-.034.647m-1.724-1.157c-.011-.817-.261-1.384-.975-1.384-.6,0-.941.374-1.032,1.463h2.008Z" transform="translate(-166.345 -11.689)" fill="#f5ebd9"/>
          <path id="Path_63358" data-name="Path 63358" d="M245.261,18.4h-3.72c.113,1.078.624,1.372,1.361,1.372a2.44,2.44,0,0,0,1.44-.533l.737,1a3.7,3.7,0,0,1-2.348.839A2.848,2.848,0,0,1,239.7,17.9c0-1.8.987-3.232,2.813-3.232,1.724,0,2.779,1.134,2.779,3.085a5.994,5.994,0,0,1-.034.647m-1.724-1.157c-.011-.817-.261-1.384-.975-1.384-.6,0-.941.374-1.032,1.463h2.008Z" transform="translate(-190.969 -11.689)" fill="#f5ebd9"/>
          <path id="Path_63359" data-name="Path 63359" d="M277.426,16.487v4.4h-1.792V16.793c0-.635-.215-.805-.567-.805-.4,0-.737.284-1.043.783v4.117h-1.792V14.865h1.554l.136.726a2.272,2.272,0,0,1,1.837-.919,1.6,1.6,0,0,1,1.667,1.815" transform="translate(-216.883 -11.689)" fill="#f5ebd9"/>
          <path id="Path_63360" data-name="Path 63360" d="M2.413,88.076H1.735v2.806H0V83.544H2.4c1.991,0,3.018.709,3.018,2.234a2.017,2.017,0,0,1-1.408,1.98l1.863,3.124H3.917Zm-.678-1.2h.731c.762,0,1.165-.328,1.165-1.1,0-.709-.413-1.017-1.27-1.017H1.735Z" transform="translate(0.001 -66.559)" fill="#f5ebd9"/>
          <path id="Path_63361" data-name="Path 63361" d="M35.025,94.579H31.553c.106,1.006.582,1.281,1.27,1.281a2.278,2.278,0,0,0,1.345-.5l.688.932a3.456,3.456,0,0,1-2.192.784,2.659,2.659,0,0,1-2.827-2.965c0-1.684.921-3.018,2.626-3.018,1.609,0,2.594,1.059,2.594,2.88a5.569,5.569,0,0,1-.032.6M33.416,93.5c-.011-.762-.243-1.292-.911-1.292-.561,0-.879.349-.963,1.366h1.874Z" transform="translate(-23.771 -72.574)" fill="#f5ebd9"/>
          <path id="Path_63362" data-name="Path 63362" d="M63.083,95.954l-.349,1.091a1.435,1.435,0,0,1-1.355-.8,1.906,1.906,0,0,1-1.694.836,1.7,1.7,0,0,1-1.832-1.758c0-1.228.942-1.9,2.636-1.9h.572V93.18c0-.667-.265-.868-.953-.868a5.063,5.063,0,0,0-1.472.3l-.381-1.1a6.352,6.352,0,0,1,2.118-.413c1.631,0,2.329.688,2.329,1.991v2.181c0,.434.117.593.381.688m-2.022-.6V94.345h-.413c-.762,0-1.122.265-1.122.826a.62.62,0,0,0,.646.709,1.024,1.024,0,0,0,.889-.529" transform="translate(-46.091 -72.574)" fill="#f5ebd9"/>
          <path id="Path_63363" data-name="Path 63363" d="M87.431,86.713V80.286l1.673-.18V86.65c0,.233.1.349.3.349a.708.708,0,0,0,.275-.053l.318,1.186a2.635,2.635,0,0,1-1.016.191,1.439,1.439,0,0,1-1.546-1.609" transform="translate(-69.655 -63.82)" fill="#f5ebd9"/>
          <path id="Path_63364" data-name="Path 63364" d="M104.615,78.351a.991.991,0,1,1-1-.953.941.941,0,0,1,1,.953m-.148,7.634h-1.673V80.363h1.673Z" transform="translate(-81.768 -61.662)" fill="#f5ebd9"/>
          <path id="Path_63365" data-name="Path 63365" d="M119.086,91.82a2.786,2.786,0,0,1-1.525.445c-1.239-.011-1.842-.71-1.842-2.033v-2.6h-.794V86.462h.794V85.245l1.673-.191v1.408h1.292l-.18,1.165h-1.112V90.21c0,.54.18.731.529.731a1.187,1.187,0,0,0,.6-.18Z" transform="translate(-91.559 -67.762)" fill="#f5ebd9"/>
          <path id="Path_63366" data-name="Path 63366" d="M138.17,97.613A3.132,3.132,0,0,1,135,99.953l-.18-1.175c1.1-.138,1.5-.455,1.811-1.175h-.572l-1.715-5.622h1.779l1.006,4.553,1.1-4.553h1.726Z" transform="translate(-107.034 -73.279)" fill="#f5ebd9"/>
        </g>
      </g>
    </g>
  </g>
</svg>
