<svg id="dashboard-logo" xmlns="http://www.w3.org/2000/svg" xmlns:xlink="http://www.w3.org/1999/xlink" width="85.331" height="132.83" viewBox="0 0 85.331 132.83">
  <defs>
    <linearGradient id="linear-gradient" x1="0.864" y1="0.255" x2="0.075" y2="0.749" gradientUnits="objectBoundingBox">
      <stop offset="0" stop-color="#6cd7bc"/>
      <stop offset="1" stop-color="#0c8d6c"/>
    </linearGradient>
    <linearGradient id="linear-gradient-2" x1="0.965" y1="0.089" x2="-0.269" y2="1.266" gradientUnits="objectBoundingBox">
      <stop offset="0" stop-color="#39c6a2"/>
      <stop offset="1" stop-color="#0d7b5e"/>
    </linearGradient>
    <filter id="Path_62725" x="0.608" y="0" width="81.621" height="81.621" filterUnits="userSpaceOnUse">
      <feOffset dy="3" input="SourceAlpha"/>
      <feGaussianBlur stdDeviation="3" result="blur"/>
      <feFlood flood-opacity="0.42" result="color"/>
      <feComposite operator="out" in="SourceGraphic" in2="blur"/>
      <feComposite operator="in" in="color"/>
      <feComposite operator="in" in2="SourceGraphic"/>
    </filter>
    <clipPath id="clip-path">
      <path id="Path_30" data-name="Path 30" d="M28.468,0,0,24.365H9.711V42.653H26.786V24.365a20.5,20.5,0,0,1,3.363-10.582c1.148-1.832,4.767-5.433,6.438-7Z" fill="url(#linear-gradient)"/>
    </clipPath>
    <clipPath id="clip-path-2">
      <path id="Path_31" data-name="Path 31" d="M95.482,110.306c0-4.907-6.377-7.772-11.16-7.772,0,4.535,2.923,7.772,11.16,7.772" transform="translate(-84.322 -102.534)" fill="#f5ebd9"/>
    </clipPath>
    <clipPath id="clip-path-3">
      <path id="Path_32" data-name="Path 32" d="M193.863,34.054c.115-.05.229-.1.344-.154.229-.106.456-.215.684-.33s.454-.234.682-.359q.318-.177.637-.363c.028-.018.055-.035.084-.051l.293-.178.317-.2.033-.022.284-.185.075-.05c.179-.121.357-.245.535-.37l.118-.085.272-.2c.014-.012.027-.021.039-.03.1-.077.2-.154.306-.233s.215-.168.321-.253.214-.172.32-.26l.3-.253a.439.439,0,0,0,.036-.031q.148-.126.293-.256c.1-.091.207-.186.311-.279a.063.063,0,0,1,.011-.009l.3-.277c.1-.1.2-.194.3-.294s.2-.2.3-.3q.6-.605,1.159-1.264.11-.126.215-.255.278-.332.542-.677c.051-.064.1-.128.15-.194.15-.2.3-.4.441-.6.085-.12.321-.376.4-.5l2.008,1.618a18.6,18.6,0,0,1-12.114,6.891Zm1.186-18.984c3.8-1.782,7.564-1.2,9.567-1.2,0,3.363-1.7,7.355-4.049,10.976-3.682,5.679-8.964,10.447-11.794,10.447,0-5.332,3.551-10.157,6.835-13.6,1.318-1.386,2.593-2.548,3.578-3.433a21.307,21.307,0,0,0-4.759,2.68c-5.113,3.8-8.132,9.427-8.132,13.261V52.483H203.37V34.2l11.484.046-10.877-8.687c2.656-3.88,3.353-8.016,3.353-13.826a24,24,0,0,0-12.282,3.343" transform="translate(-186.295 -11.728)" fill="url(#linear-gradient-2)"/>
    </clipPath>
    <clipPath id="clip-path-4">
      <rect id="Rectangle_35" data-name="Rectangle 35" width="60.292" height="42.671" fill="none"/>
    </clipPath>
    <clipPath id="clip-path-5">
      <path id="Path_34" data-name="Path 34" d="M242.738,97.623c-.145.2-.291.4-.441.6-.049.066-.1.13-.15.194q-.265.346-.542.677-.105.13-.215.255-.561.659-1.159,1.264c-.1.1-.2.2-.3.3s-.2.2-.3.294l-.3.277a.061.061,0,0,0-.011.009c-.1.094-.206.188-.311.279s-.195.172-.293.256a.439.439,0,0,1-.036.031l-.3.253c-.106.088-.212.175-.32.26s-.212.168-.321.253-.2.156-.306.233c-.012.009-.026.018-.039.03l-.272.2-.118.085c-.178.125-.356.25-.535.37l-.075.05-.284.185-.033.022-.317.2-.293.178c-.029.016-.055.033-.084.051q-.318.186-.637.363c-.227.125-.454.244-.682.359s-.456.224-.684.33c-.115.053-.229.1-.344.154l0,0a18.6,18.6,0,0,0,12.114-6.891l-2.008-1.618c-.084.123-.319.379-.4.5" transform="translate(-233.037 -97.125)" fill="none"/>
    </clipPath>
    <clipPath id="clip-path-6">
      <rect id="Rectangle_8243" data-name="Rectangle 8243" width="85.331" height="40.535" transform="translate(0 0)" fill="none"/>
    </clipPath>
  </defs>
  <g data-type="innerShadowGroup">
    <path id="Path_62725-2" data-name="Path 62725" d="M40.81,0A40.81,40.81,0,1,1,0,40.81,40.81,40.81,0,0,1,40.81,0Z" transform="translate(0.608)" fill="#f5ebd9"/>
    <g transform="matrix(1, 0, 0, 1, 0, 0)" filter="url(#Path_62725)">
      <path id="Path_62725-3" data-name="Path 62725" d="M40.81,0A40.81,40.81,0,1,1,0,40.81,40.81,40.81,0,0,1,40.81,0Z" transform="translate(0.61)" fill="#fff"/>
    </g>
  </g>
  <g id="Group_29" data-name="Group 29" transform="translate(13.708 16.127)">
    <g id="Group_28" data-name="Group 28" clip-path="url(#clip-path)">
      <rect id="Rectangle_32" data-name="Rectangle 32" width="54.375" height="51.582" transform="translate(-16.805 34.456) rotate(-64)" fill="url(#linear-gradient)"/>
    </g>
  </g>
  <g id="Group_31" data-name="Group 31" transform="translate(27.354 32.72)">
    <g id="Group_30" data-name="Group 30" clip-path="url(#clip-path-2)">
      <rect id="Rectangle_33" data-name="Rectangle 33" width="11.877" height="13.437" transform="translate(-3.062 6.278) rotate(-64)" fill="#f5ebd9"/>
    </g>
  </g>
  <g id="Group_33" data-name="Group 33" transform="translate(43.857 18.025)">
    <g id="Group_32" data-name="Group 32" clip-path="url(#clip-path-3)">
      <rect id="Rectangle_34" data-name="Rectangle 34" width="45.111" height="49.574" transform="matrix(0.866, -0.5, 0.5, 0.866, -17.647, 10.189)" fill="url(#linear-gradient-2)"/>
    </g>
  </g>
  <g id="Group_35" data-name="Group 35" transform="translate(13.708 16.127)">
    <g id="Group_34" data-name="Group 34" clip-path="url(#clip-path-4)">
      <path id="Path_33" data-name="Path 33" d="M240.356,32.388l0,0" transform="translate(-201.458 -27.144)" fill="none" stroke="#7cb732" stroke-linecap="round" stroke-linejoin="round" stroke-width="0"/>
    </g>
  </g>
  <g id="Group_37" data-name="Group 37" transform="translate(51.422 31.845)">
    <g id="Group_36" data-name="Group 36" clip-path="url(#clip-path-5)">
      <rect id="Rectangle_36" data-name="Rectangle 36" width="14.745" height="13.426" transform="translate(-3.685 2.127) rotate(-30)" fill="#f5ebd9"/>
    </g>
  </g>
  <g id="text" transform="translate(0 92.295)">
    <path id="Path_63367" data-name="Path 63367" d="M0,1.888V12.981H6.8V11.092H2.625V8.259h3.41V6.419H2.625V3.762H6.53L6.8,1.888Z" fill="#f5ebd9"/>
    <g id="Group_14937" data-name="Group 14937">
      <g id="Group_14936" data-name="Group 14936" clip-path="url(#clip-path-6)">
        <path id="Path_63368" data-name="Path 63368" d="M15.523,6.771v6.211h-2.53V7.2c0-.9-.3-1.137-.8-1.137-.559,0-1.04.4-1.473,1.1v5.811H8.191v-8.5h2.193l.192,1.024a3.208,3.208,0,0,1,2.593-1.3,2.258,2.258,0,0,1,2.354,2.561" fill="#f5ebd9"/>
        <path id="Path_63369" data-name="Path 63369" d="M21.922,12.982H18.929l-2.737-8.5h2.753l1.5,6.578,1.569-6.578h2.577Z" fill="#f5ebd9"/>
        <path id="Path_63370" data-name="Path 63370" d="M28.225,1.44a1.5,1.5,0,0,1-2.994,0,1.5,1.5,0,0,1,2.994,0M28,12.981H25.471v-8.5H28Z" fill="#f5ebd9"/>
        <path id="Path_63371" data-name="Path 63371" d="M35.41,4.354,35.01,6.8a3.232,3.232,0,0,0-.768-.112c-1.041,0-1.473.753-1.761,2.017v4.274H29.952v-8.5h2.193l.224,1.648a2.4,2.4,0,0,1,2.193-1.888,2.97,2.97,0,0,1,.848.111" fill="#f5ebd9"/>
        <path id="Path_63372" data-name="Path 63372" d="M43.891,8.74c0,2.721-1.569,4.514-4.162,4.514s-4.162-1.665-4.162-4.53c0-2.721,1.569-4.514,4.162-4.514s4.162,1.665,4.162,4.53m-5.7-.016c0,1.889.512,2.673,1.537,2.673s1.537-.817,1.537-2.657c0-1.889-.513-2.673-1.537-2.673s-1.537.816-1.537,2.657" fill="#f5ebd9"/>
        <path id="Path_63373" data-name="Path 63373" d="M53.219,4.978a6.635,6.635,0,0,1-2.449.336,2.205,2.205,0,0,1,1.6,2.193c0,1.649-1.359,2.849-3.568,2.849a4.77,4.77,0,0,1-.977-.1.542.542,0,0,0-.272.479c0,.257.112.513.928.513h1.281c1.985,0,3.249,1.04,3.249,2.465,0,1.745-1.538,2.817-4.45,2.817-3.217,0-4.066-1.057-4.066-2.737h2.273c0,.736.321,1.056,1.857,1.056,1.489,0,1.841-.416,1.841-.961,0-.5-.369-.832-1.217-.832H48.016c-1.856,0-2.609-.768-2.609-1.68a2.024,2.024,0,0,1,1.009-1.633A2.5,2.5,0,0,1,44.9,7.315c0-1.921,1.505-3.105,3.73-3.105a6.73,6.73,0,0,0,4-1.105Zm-5.81,2.3c0,.929.512,1.44,1.279,1.44.833,0,1.282-.5,1.282-1.472,0-.945-.432-1.376-1.282-1.376a1.247,1.247,0,0,0-1.279,1.408" fill="#f5ebd9"/>
        <path id="Path_63374" data-name="Path 63374" d="M59.65,4.354l-.4,2.449a3.256,3.256,0,0,0-.77-.112c-1.04,0-1.473.753-1.76,2.017v4.274H54.192v-8.5h2.193l.224,1.648A2.4,2.4,0,0,1,58.8,4.243a2.972,2.972,0,0,1,.849.111" fill="#f5ebd9"/>
        <path id="Path_63375" data-name="Path 63375" d="M67.651,9.476H62.4c.16,1.521.88,1.937,1.92,1.937a3.442,3.442,0,0,0,2.033-.753l1.041,1.41a5.237,5.237,0,0,1-3.314,1.184c-2.833,0-4.274-1.825-4.274-4.482,0-2.545,1.392-4.562,3.971-4.562,2.432,0,3.92,1.6,3.92,4.354a8.752,8.752,0,0,1-.047.912M65.217,7.844c-.016-1.153-.367-1.953-1.376-1.953-.849,0-1.329.528-1.456,2.064h2.832Z" fill="#f5ebd9"/>
        <path id="Path_63376" data-name="Path 63376" d="M76.515,9.476h-5.25c.16,1.521.88,1.937,1.92,1.937a3.442,3.442,0,0,0,2.033-.753l1.041,1.41a5.237,5.237,0,0,1-3.314,1.184c-2.833,0-4.274-1.825-4.274-4.482,0-2.545,1.392-4.562,3.971-4.562,2.432,0,3.92,1.6,3.92,4.354a8.752,8.752,0,0,1-.047.912M74.081,7.844c-.016-1.153-.367-1.953-1.376-1.953-.849,0-1.329.528-1.456,2.064h2.832Z" fill="#f5ebd9"/>
        <path id="Path_63377" data-name="Path 63377" d="M85.331,6.771v6.211H82.8V7.2c0-.9-.305-1.137-.8-1.137-.56,0-1.04.4-1.473,1.1v5.811H78v-8.5h2.192l.193,1.024a3.206,3.206,0,0,1,2.592-1.3,2.258,2.258,0,0,1,2.354,2.561" fill="#f5ebd9"/>
        <path id="Path_63378" data-name="Path 63378" d="M20.649,32.74H19.625v4.242H17V25.889h3.633c3.01,0,4.562,1.072,4.562,3.378a3.049,3.049,0,0,1-2.129,2.993l2.817,4.722H22.922Zm-1.024-1.809h1.1c1.153,0,1.761-.5,1.761-1.664,0-1.072-.624-1.537-1.921-1.537h-.944Z" fill="#f5ebd9"/>
        <path id="Path_63379" data-name="Path 63379" d="M34.011,33.476h-5.25c.16,1.521.88,1.937,1.921,1.937a3.444,3.444,0,0,0,2.033-.753l1.04,1.41a5.232,5.232,0,0,1-3.313,1.184c-2.834,0-4.274-1.825-4.274-4.482,0-2.545,1.392-4.562,3.97-4.562,2.433,0,3.921,1.6,3.921,4.354a8.483,8.483,0,0,1-.048.912m-2.433-1.632c-.016-1.153-.368-1.953-1.376-1.953-.849,0-1.329.528-1.457,2.064h2.833Z" fill="#f5ebd9"/>
        <path id="Path_63380" data-name="Path 63380" d="M42.682,35.557l-.527,1.649A2.17,2.17,0,0,1,40.1,35.99a2.884,2.884,0,0,1-2.561,1.264A2.568,2.568,0,0,1,34.775,34.6c0-1.857,1.425-2.865,3.986-2.865h.864v-.368c0-1.009-.4-1.313-1.44-1.313a7.66,7.66,0,0,0-2.225.448l-.577-1.665a9.614,9.614,0,0,1,3.2-.624c2.464,0,3.521,1.04,3.521,3.009v3.3c0,.656.176.9.576,1.04m-3.057-.912V33.124H39c-1.152,0-1.7.4-1.7,1.249a.937.937,0,0,0,.977,1.072,1.548,1.548,0,0,0,1.344-.8" fill="#f5ebd9"/>
        <path id="Path_63381" data-name="Path 63381" d="M43.864,34.82V25.1l2.529-.271v9.891c0,.353.145.529.449.529a1.1,1.1,0,0,0,.416-.08l.479,1.793a3.972,3.972,0,0,1-1.536.288,2.175,2.175,0,0,1-2.337-2.434" fill="#f5ebd9"/>
        <path id="Path_63382" data-name="Path 63382" d="M51.529,25.44A1.5,1.5,0,1,1,50.024,24a1.423,1.423,0,0,1,1.505,1.44m-.224,11.541H48.776v-8.5h2.529Z" fill="#f5ebd9"/>
        <path id="Path_63383" data-name="Path 63383" d="M58.6,36.581a4.216,4.216,0,0,1-2.306.673c-1.872-.017-2.785-1.073-2.785-3.073V30.243h-1.2V28.482h1.2v-1.84l2.529-.289v2.129h1.953l-.272,1.761H56.04v3.9c0,.817.273,1.1.8,1.1a1.784,1.784,0,0,0,.912-.273Z" fill="#f5ebd9"/>
        <path id="Path_63384" data-name="Path 63384" d="M64.057,37c-.672,2.146-2.113,3.394-4.785,3.538L59,38.758c1.666-.208,2.274-.688,2.739-1.777h-.866l-2.592-8.5h2.689l1.521,6.883,1.664-6.883h2.609Z" fill="#f5ebd9"/>
      </g>
    </g>
  </g>
</svg>
