<svg xmlns="http://www.w3.org/2000/svg" xmlns:xlink="http://www.w3.org/1999/xlink" width="44" height="44" viewBox="0 0 44 44">
  <defs>
    <filter id="Path_63348" x="0" y="0" width="44" height="44" filterUnits="userSpaceOnUse">
      <feOffset dy="3" input="SourceAlpha"/>
      <feGaussianBlur stdDeviation="3" result="blur"/>
      <feFlood flood-opacity="0.42" result="color"/>
      <feComposite operator="out" in="SourceGraphic" in2="blur"/>
      <feComposite operator="in" in="color"/>
      <feComposite operator="in" in2="SourceGraphic"/>
    </filter>
    <filter id="Path_63345" x="4.637" y="21.517" width="34.919" height="19" filterUnits="userSpaceOnUse">
      <feOffset dy="2" input="SourceAlpha"/>
      <feGaussianBlur stdDeviation="2.5" result="blur-2"/>
      <feFlood flood-opacity="0.161"/>
      <feComposite operator="in" in2="blur-2"/>
      <feComposite in="SourceGraphic"/>
    </filter>
    <filter id="Path_63346" x="4.637" y="14.343" width="34.919" height="19" filterUnits="userSpaceOnUse">
      <feOffset dy="2" input="SourceAlpha"/>
      <feGaussianBlur stdDeviation="2.5" result="blur-3"/>
      <feFlood flood-opacity="0.161"/>
      <feComposite operator="in" in2="blur-3"/>
      <feComposite in="SourceGraphic"/>
    </filter>
    <filter id="Path_63347" x="4.637" y="7.168" width="34.919" height="19" filterUnits="userSpaceOnUse">
      <feOffset dy="2" input="SourceAlpha"/>
      <feGaussianBlur stdDeviation="2.5" result="blur-4"/>
      <feFlood flood-opacity="0.161"/>
      <feComposite operator="in" in2="blur-4"/>
      <feComposite in="SourceGraphic"/>
    </filter>
  </defs>
  <g id="dash-mobile-menu" transform="translate(0 -2.154)">
    <g data-type="innerShadowGroup">
      <path id="Path_63348-2" data-name="Path 63348" d="M22,0A22,22,0,1,1,0,22,22,22,0,0,1,22,0Z" transform="translate(0 2.154)" fill="#f5ebd9"/>
      <g transform="matrix(1, 0, 0, 1, 0, 2.15)" filter="url(#Path_63348)">
        <path id="Path_63348-3" data-name="Path 63348" d="M22,0A22,22,0,1,1,0,22,22,22,0,0,1,22,0Z" transform="translate(0 0)" fill="#fff"/>
      </g>
    </g>
    <g transform="matrix(1, 0, 0, 1, 0, 2.15)" filter="url(#Path_63345)">
      <path id="Path_63345-2" data-name="Path 63345" d="M4.5,27H20.419" transform="translate(9.64 2.02)" fill="none" stroke="#2d9b7f" stroke-linecap="round" stroke-linejoin="round" stroke-width="4"/>
    </g>
    <g transform="matrix(1, 0, 0, 1, 0, 2.15)" filter="url(#Path_63346)">
      <path id="Path_63346-2" data-name="Path 63346" d="M4.5,27H20.419" transform="translate(9.64 -5.16)" fill="none" stroke="#2d9b7f" stroke-linecap="round" stroke-linejoin="round" stroke-width="4"/>
    </g>
    <g transform="matrix(1, 0, 0, 1, 0, 2.15)" filter="url(#Path_63347)">
      <path id="Path_63347-2" data-name="Path 63347" d="M4.5,27H20.419" transform="translate(9.64 -12.33)" fill="none" stroke="#2d9b7f" stroke-linecap="round" stroke-linejoin="round" stroke-width="4"/>
    </g>
  </g>
</svg>
