<?xml version="1.0" encoding="UTF-8"?><svg id="uuid-092575d4-c16f-45fb-a466-8cb389818a28" xmlns="http://www.w3.org/2000/svg" xmlns:xlink="http://www.w3.org/1999/xlink" viewBox="0 0 287.31 147.57"><defs><clipPath id="uuid-95403190-2286-423e-83c0-8a0dcb15b870"><polygon points="32.13 79.07 49.02 79.07 49.02 110.88 114.27 110.88 114.27 63.38 116.86 41.98 103.93 43.81 100.06 45.65 95.77 48.48 81.65 36.69 32.13 79.07" fill="none" stroke-width="0"/></clipPath><clipPath id="uuid-5dd2a8f4-55e8-4296-a8c4-8f053e77a618"><path d="m81.65,36.66l-49.52,42.38h16.89v31.81h29.7v-31.81c.22-6.56,2.25-12.93,5.85-18.41,2-3.19,8.29-9.45,11.2-12.18l-14.12-11.8Z" fill="none" stroke-width="0"/></clipPath><linearGradient id="uuid-43be4efd-aca6-41f3-97a9-4db8f43473b5" x1="-241.23" y1="470.35" x2="-242.11" y2="469.79" gradientTransform="translate(20520.74 37825.86) scale(84.66 -80.31)" gradientUnits="userSpaceOnUse"><stop offset="0" stop-color="#6cd7bc"/><stop offset="1" stop-color="#0c8d6c"/></linearGradient><clipPath id="uuid-9a4ec9d6-86db-43c4-bb4b-f1f38c01dd4f"><path d="m75.28,79.04c0-8.53-11.09-13.52-19.41-13.52,0,7.89,5.09,13.52,19.41,13.52Z" fill="none" stroke-width="0"/></clipPath><clipPath id="uuid-261a2194-b13a-4ff2-9d02-5e05b66e3291"><path d="m97.74,78.8c.2-.09.4-.18.6-.27.4-.18.79-.37,1.19-.57s.79-.41,1.19-.62c.37-.21.74-.42,1.11-.63.05-.03.09-.06.15-.09l.51-.31.55-.35.06-.04c.16-.11.33-.21.49-.32l.13-.09c.31-.21.62-.43.93-.64l.21-.15c.16-.11.32-.22.47-.34.02-.02.05-.04.07-.05.18-.13.36-.27.53-.4s.37-.29.56-.44.37-.3.56-.45.35-.29.52-.44c.02-.02.04-.03.06-.05.17-.15.34-.3.51-.45.18-.16.36-.32.54-.49,0,0,.01-.01.02-.02.17-.16.34-.32.52-.48.17-.16.35-.34.53-.51s.35-.34.52-.52c.69-.7,1.36-1.44,2.01-2.2.13-.15.25-.3.37-.45.32-.38.64-.78.94-1.18.09-.11.18-.22.26-.34.26-.34.51-.69.77-1.04.15-.21.56-.65.7-.87l3.49,2.81c-5.21,6.58-12.76,10.87-21.07,11.99h0Zm2.06-33.02c6.61-3.1,13.16-2.09,16.64-2.09,0,5.85-2.96,12.79-7.04,19.09-6.41,9.88-15.59,18.17-20.52,18.17,0-9.27,6.18-17.67,11.89-23.67,2.29-2.41,4.51-4.43,6.22-5.97-2.95,1.19-5.73,2.76-8.28,4.66-8.89,6.61-14.14,16.4-14.14,23.07v31.81h29.7v-31.81l19.98.08-18.92-15.11c4.62-6.75,5.83-13.94,5.83-24.05-7.51-.02-14.9,1.99-21.37,5.81h0Z" fill="none" stroke-width="0"/></clipPath><linearGradient id="uuid-bd08da17-734e-4046-aca4-cd09a6b01b45" x1="-237.84" y1="469.73" x2="-239.22" y2="468.41" gradientTransform="translate(16848.7 36292.99) scale(70.23 -77.18)" gradientUnits="userSpaceOnUse"><stop offset="0" stop-color="#39c6a2"/><stop offset="1" stop-color="#0d7b5e"/></linearGradient><clipPath id="uuid-66408b5b-c659-4556-abb9-76a0f14f8127"><path d="m114.61,64.86c-.25.35-.51.7-.77,1.04-.08.11-.17.22-.26.34-.31.4-.62.79-.94,1.18-.12.15-.25.3-.37.45-.65.76-1.32,1.5-2.01,2.2-.17.18-.35.35-.52.52s-.35.34-.53.51c-.18.17-.34.32-.52.48,0,0-.01,0-.02.02-.18.16-.36.33-.54.49-.18.16-.34.3-.51.45-.02.02-.04.04-.06.05-.17.15-.35.29-.52.44-.17.15-.37.3-.56.45-.19.14-.37.29-.56.44-.19.15-.35.27-.53.4-.02.02-.04.03-.07.05-.16.11-.31.22-.47.34l-.21.15c-.31.22-.62.43-.93.64l-.13.09c-.17.11-.33.22-.49.32l-.06.04-.55.35-.51.31c-.05.03-.1.06-.15.09-.37.22-.74.43-1.11.63-.4.22-.79.42-1.19.62-.4.2-.79.39-1.19.57-.2.09-.4.18-.6.27,8.31-1.11,15.86-5.41,21.07-11.98l-3.49-2.81c-.15.21-.56.66-.7.87h0Z" fill="none" stroke-width="0"/></clipPath></defs><g id="uuid-346589fb-db86-43f2-b380-df87b2fbc22a"><g clip-path="url(#uuid-95403190-2286-423e-83c0-8a0dcb15b870)"><g id="uuid-53d20493-fbdc-4dc7-b44d-98a5835d78dd"><rect id="uuid-0a7bfa1f-c36d-46b2-aeea-61968b7af52e" x="21.18" y="18.55" width="106.62" height="110.48" transform="translate(-26.66 101.4) rotate(-60)" fill="#fff" stroke-width="0"/></g></g></g><g id="uuid-35d41067-469e-4ab9-918a-7a06e3fc579c"><g clip-path="url(#uuid-5dd2a8f4-55e8-4296-a8c4-8f053e77a618)"><g id="uuid-e2e0070e-dcdf-4529-ab1d-001184f2682d"><rect id="uuid-00f9dd34-10fd-4c30-a96c-4072a45b3ebb" x="16.66" y="28.89" width="94.58" height="89.73" transform="translate(-30.38 98.9) rotate(-64)" fill="url(#uuid-43be4efd-aca6-41f3-97a9-4db8f43473b5)" stroke-width="0"/></g></g></g><g id="uuid-0a6204c8-c301-412d-82ee-d3ff14366383"><g clip-path="url(#uuid-9a4ec9d6-86db-43c4-bb4b-f1f38c01dd4f)"><g id="uuid-ed69ff0a-d7bf-4087-9525-1867f4a8b63e"><rect id="uuid-c69dfaa4-944b-41a2-85ae-d470e8f9fac5" x="55.24" y="60.59" width="20.66" height="23.37" transform="translate(-28.14 99.53) rotate(-64)" fill="#fff" stroke-width="0"/></g></g></g><g id="uuid-0170726f-6495-494a-b124-5223b0ed4555"><g clip-path="url(#uuid-261a2194-b13a-4ff2-9d02-5e05b66e3291)"><g id="uuid-760f4069-01c4-410d-bc89-7a565a60df25"><rect id="uuid-8b2f470e-df13-493c-9cc0-fa02817b74ee" x="70.18" y="32.29" width="78.47" height="86.23" transform="translate(-23.04 64.81) rotate(-30)" fill="url(#uuid-bd08da17-734e-4046-aca4-cd09a6b01b45)" stroke-width="0"/></g></g></g><g id="uuid-32a8b681-3526-422f-b782-ddb5025620a6"><g clip-path="url(#uuid-66408b5b-c659-4556-abb9-76a0f14f8127)"><g id="uuid-875e055f-2959-4183-9b04-aeaedb2ce606"><rect id="uuid-5e1e062f-1915-4a94-ac7c-a15d66bbd652" x="95.44" y="59.72" width="25.65" height="23.35" transform="translate(-21.19 63.7) rotate(-30)" fill="#fff" stroke-width="0"/></g></g></g><path d="m154.11,91.73h-1.13v5.78h-3.48v-15.06h4.41c3.98,0,5.87,1.54,5.87,4.56,0,1.8-.76,3.24-2.54,4.06l3.41,6.43h-3.8l-2.74-5.78Zm-1.13-2.41h1.04c1.52,0,2.19-.7,2.19-2.3,0-1.46-.72-2.11-2.35-2.11h-.89v4.41Z" fill="#415e8f" stroke-width="0"/><path d="m172.25,92.73h-6.43c.17,2.15,1,2.69,2.22,2.69.89,0,1.63-.33,2.52-.98l1.37,1.85c-1.02.91-2.39,1.59-4.15,1.59-3.54,0-5.32-2.39-5.32-6.08s1.72-6.19,4.98-6.19c3,0,4.89,2.04,4.89,5.91,0,.37-.04.87-.07,1.22Zm-3.22-2.17c0-1.76-.39-2.74-1.56-2.74-.98,0-1.54.67-1.65,2.89h3.22v-.15Z" fill="#415e8f" stroke-width="0"/><path d="m184.5,95.62l-.7,2.2c-1.26-.11-2.11-.52-2.59-1.61-.78,1.22-1.93,1.67-3.13,1.67-2.11,0-3.41-1.46-3.41-3.61,0-2.5,1.72-3.89,4.95-3.89h.91v-.54c0-1.39-.46-1.83-1.67-1.83-.74,0-1.67.22-2.72.59l-.74-2.15c1.3-.54,2.8-.85,4.04-.85,3,0,4.37,1.35,4.37,4.04v4.67c0,.8.2,1.11.67,1.3Zm-3.95-1.22v-2.15h-.61c-1.35,0-1.96.54-1.96,1.74,0,.98.39,1.5,1.11,1.5.63,0,1.13-.39,1.46-1.09Z" fill="#415e8f" stroke-width="0"/><path d="m187.39,94.75v-13.36l3.35-.35v13.56c0,.41.17.63.52.63.2,0,.35-.04.48-.09l.63,2.33c-.48.22-1.17.41-1.96.41-1.91,0-3.02-1.17-3.02-3.13Z" fill="#415e8f" stroke-width="0"/><path d="m198.65,81.84c0,1.09-.78,1.91-1.93,1.91s-1.96-.83-1.96-1.91.8-1.89,1.96-1.89,1.93.83,1.93,1.89Zm-.26,15.67h-3.35v-11.54h3.35v11.54Z" fill="#415e8f" stroke-width="0"/><path d="m208.88,96.97c-.8.61-1.91.91-2.89.91-2.43,0-3.56-1.46-3.56-3.8v-5.76h-1.39v-2.35h1.39v-2.5l3.35-.39v2.89h2.37l-.33,2.35h-2.04v5.71c0,.83.33,1.2.91,1.2.37,0,.7-.11,1.09-.33l1.11,2.06Z" fill="#415e8f" stroke-width="0"/><path d="m217.26,97.53c-.8,2.89-2.72,4.58-6.04,4.8l-.37-2.33c2.02-.3,2.85-.96,3.41-2.5h-1.2l-3.08-11.54h3.46l1.76,9.41,1.98-9.41h3.37l-3.28,11.56Z" fill="#415e8f" stroke-width="0"/><path d="m158.04,62h-4.67v3.72h4.08v2.43h-4.08v3.91h5v2.52h-8.47v-15.06h8.52l-.37,2.48Z" fill="#415e8f" stroke-width="0"/><path d="m170.6,66.04v8.54h-3.35v-8.08c0-1-.33-1.3-.85-1.3-.59,0-1.13.52-1.65,1.43v7.95h-3.35v-11.54h2.91l.24,1.37c.85-1.13,1.8-1.74,3.13-1.74,1.8,0,2.91,1.28,2.91,3.37Z" fill="#415e8f" stroke-width="0"/><path d="m180.11,74.58h-3.95l-3.28-11.54h3.5l1.78,9,1.85-9h3.32l-3.22,11.54Z" fill="#415e8f" stroke-width="0"/><path d="m189.43,58.92c0,1.09-.78,1.91-1.93,1.91s-1.96-.83-1.96-1.91.8-1.89,1.96-1.89,1.93.83,1.93,1.89Zm-.26,15.67h-3.35v-11.54h3.35v11.54Z" fill="#415e8f" stroke-width="0"/><path d="m199.84,62.89l-.54,3.22c-.3-.09-.59-.13-.91-.13-1.28,0-1.78,1.04-2.11,2.61v6h-3.35v-11.54h2.91l.26,2.04c.52-1.5,1.48-2.37,2.72-2.37.39,0,.7.04,1.02.17Z" fill="#415e8f" stroke-width="0"/><path d="m211.83,68.82c0,3.82-1.98,6.13-5.19,6.13s-5.17-2.13-5.17-6.15,1.96-6.13,5.17-6.13,5.19,2.09,5.19,6.15Zm-6.91-.02c0,2.72.57,3.69,1.72,3.69s1.74-1.02,1.74-3.67-.57-3.67-1.74-3.67-1.72,1-1.72,3.65Z" fill="#415e8f" stroke-width="0"/><path d="m224.8,63.72c-.67.3-1.65.43-2.98.43,1.35.61,2.02,1.48,2.02,3,0,2.24-1.7,3.85-4.48,3.85-.43,0-.83-.04-1.17-.13-.22.15-.35.41-.35.7,0,.41.17.74,1.15.74h1.41c2.61,0,4.17,1.39,4.17,3.3,0,2.28-1.91,3.78-5.54,3.78-4.04,0-5.08-1.46-5.08-3.69h3c0,1.02.37,1.5,2.13,1.5s2.15-.59,2.15-1.37-.48-1.19-1.54-1.19h-1.24c-2.46,0-3.39-.98-3.39-2.26,0-.87.54-1.65,1.28-2.17-1.33-.78-1.89-1.76-1.89-3.3,0-2.63,1.87-4.22,4.76-4.19,2.26.04,3.54-.67,4.8-1.41l.78,2.43Zm-7.04,3.13c0,1.35.54,2,1.46,2s1.46-.59,1.46-2.04c0-1.37-.5-1.91-1.46-1.91s-1.46.61-1.46,1.96Z" fill="#415e8f" stroke-width="0"/><path d="m234.27,62.89l-.54,3.22c-.3-.09-.59-.13-.91-.13-1.28,0-1.78,1.04-2.11,2.61v6h-3.35v-11.54h2.91l.26,2.04c.52-1.5,1.48-2.37,2.72-2.37.39,0,.7.04,1.02.17Z" fill="#415e8f" stroke-width="0"/><path d="m245.7,69.8h-6.43c.17,2.15,1,2.69,2.22,2.69.89,0,1.63-.33,2.52-.98l1.37,1.85c-1.02.91-2.39,1.59-4.15,1.59-3.54,0-5.32-2.39-5.32-6.08s1.72-6.19,4.98-6.19c3,0,4.89,2.04,4.89,5.91,0,.37-.04.87-.07,1.22Zm-3.22-2.17c0-1.76-.39-2.74-1.56-2.74-.98,0-1.54.67-1.65,2.89h3.22v-.15Z" fill="#415e8f" stroke-width="0"/><path d="m258.25,69.8h-6.43c.17,2.15,1,2.69,2.22,2.69.89,0,1.63-.33,2.52-.98l1.37,1.85c-1.02.91-2.39,1.59-4.15,1.59-3.54,0-5.32-2.39-5.32-6.08s1.72-6.19,4.98-6.19c3,0,4.89,2.04,4.89,5.91,0,.37-.04.87-.07,1.22Zm-3.22-2.17c0-1.76-.39-2.74-1.56-2.74-.98,0-1.54.67-1.65,2.89h3.22v-.15Z" fill="#415e8f" stroke-width="0"/><path d="m270.7,66.04v8.54h-3.35v-8.08c0-1-.33-1.3-.85-1.3-.59,0-1.13.52-1.65,1.43v7.95h-3.35v-11.54h2.91l.24,1.37c.85-1.13,1.8-1.74,3.13-1.74,1.8,0,2.91,1.28,2.91,3.37Z" fill="#415e8f" stroke-width="0"/></svg>