<svg xmlns="http://www.w3.org/2000/svg" xmlns:xlink="http://www.w3.org/1999/xlink" width="36" height="36" viewBox="0 0 36 36">
  <defs>
    <filter id="Ellipse_4" x="0" y="0" width="36" height="36" filterUnits="userSpaceOnUse">
      <feOffset dy="6" input="SourceAlpha"/>
      <feGaussianBlur stdDeviation="6" result="blur"/>
      <feFlood flood-opacity="0.104" result="color"/>
      <feComposite operator="out" in="SourceGraphic" in2="blur"/>
      <feComposite operator="in" in="color"/>
      <feComposite operator="in" in2="SourceGraphic"/>
    </filter>
    <linearGradient id="linear-gradient" x1="0.5" x2="0.5" y2="1" gradientUnits="objectBoundingBox">
      <stop offset="0" stop-color="#3596eb"/>
      <stop offset="1" stop-color="#1c68a1"/>
    </linearGradient>
    <filter id="Ellipse_5" x="3" y="3" width="30" height="30" filterUnits="userSpaceOnUse">
      <feOffset dy="8" input="SourceAlpha"/>
      <feGaussianBlur stdDeviation="6" result="blur-2"/>
      <feFlood flood-opacity="0.161" result="color-2"/>
      <feComposite operator="out" in="SourceGraphic" in2="blur-2"/>
      <feComposite operator="in" in="color-2"/>
      <feComposite operator="in" in2="SourceGraphic"/>
    </filter>
  </defs>
  <g id="facebook_icon" data-name="facebook  icon" transform="translate(0 -0.001)">
    <g data-type="innerShadowGroup">
      <circle id="Ellipse_4-2" data-name="Ellipse 4" cx="18" cy="18" r="18" transform="translate(0 0.001)" fill="rgba(117,161,185,0.23)" opacity="0.85"/>
      <g transform="matrix(1, 0, 0, 1, 0, 0)" filter="url(#Ellipse_4)">
        <circle id="Ellipse_4-3" data-name="Ellipse 4" cx="18" cy="18" r="18" fill="#fff" opacity="0.85"/>
      </g>
    </g>
    <circle id="Ellipse_3" data-name="Ellipse 3" cx="15.5" cy="15.5" r="15.5" transform="translate(2 2.001)" fill="#fff"/>
    <g data-type="innerShadowGroup">
      <circle id="Ellipse_5-2" data-name="Ellipse 5" cx="15" cy="15" r="15" transform="translate(3 3.001)" fill="url(#linear-gradient)"/>
      <g transform="matrix(1, 0, 0, 1, 0, 0)" filter="url(#Ellipse_5)">
        <circle id="Ellipse_5-3" data-name="Ellipse 5" cx="15" cy="15" r="15" transform="translate(3 3)" fill="#fff"/>
      </g>
    </g>
    <path id="Path_135" data-name="Path 135" d="M39.551,29.507H37.3v8.03H33.961v-8.03H32.374V26.67h1.587V24.835a3.13,3.13,0,0,1,3.368-3.368l2.472.011v2.753H38.008A.679.679,0,0,0,37.3,25v1.669h2.543Z" transform="translate(-18.385 -11.782)" fill="#f1f2f2"/>
  </g>
</svg>
