<?xml version="1.0" encoding="UTF-8"?><svg id="uuid-116e04dd-552c-4406-be6a-ed322d2821e6" xmlns="http://www.w3.org/2000/svg" viewBox="0 0 1891.73 2100"><path d="m825.65,776.23c300.61,0,563.97-75.83,708.52-188.89,3.05-2.37,6.09-4.74,9.14-7.45,68.72-56.19,107.99-121.87,107.99-191.6,0-159.78-206.84-297.56-501.69-357.14h-.34c-2.37,0-4.4-.34-6.43-1.35C1045.01,10.49,938.04,0,825.65,0,370.34,0,0,174.34,0,388.28s370.34,387.94,825.65,387.94Zm0-612.04c266.08,0,474.61,98.17,474.61,224.1s-208.53,224.1-474.61,224.1-474.61-98.51-474.61-224.1,208.53-224.1,474.61-224.1Z" fill="#1bc197" stroke-width="0"/><path d="m825.65,578.87c239,0,441.09-87.34,441.09-190.59s-202.1-190.93-441.09-190.93-441.09,87.34-441.09,190.93,202.1,190.59,441.09,190.59Z" fill="#1bc197" stroke-width="0"/><path d="m1714.61,972.57l93.09,120.51c118.14-198.71,111.71-482.39-19.3-735.27C1642.5,76.51,1397.41,27.42,1257.94,24.37c254.91,72.78,426.54,208.53,426.54,363.91,0,78.88-44.35,152.67-121.53,215.64,0,.68-.68,1.35-1.02,2.03-196,255.58-479.68,509.47-896.06,797.89-56.53,39.61-116.11,79.89-178.06,120.51,18.28,11.85,50.78,27.08,91.06,22,71.43-9.14,137.78,39.95,147.26,109.68l.68,3.39c3.72,33.18,19.97,59.58,44.35,72.78,26.07,13.88,55.52,19.63,88.02,16.59,24.71-2.03,50.78,4.4,73.46,18.28,32.84,19.97,84.97,64.66,99.19,152.67,66.35-53.15,132.7-109.68,197.36-168.58l-211.24-184.49c-7.11-5.75-7.79-16.25-1.69-23.36,6.09-7.11,16.59-7.79,23.7-1.69l213.94,186.86c60.26-55.86,119.16-113.74,176.03-172.98l-197.02-167.91c-7.11-5.75-7.79-16.25-2.03-23.36,6.09-7.11,16.59-7.79,23.7-2.03l198.37,168.92c59.58-62.96,116.45-126.95,170.28-191.94l-153.35-157.41c-6.43-6.77-6.43-17.26.34-23.7,6.43-6.43,17.26-6.43,23.36.34l150.64,154.7c50.78-61.95,98.51-124.58,142.18-186.86.68-1.02,1.69-2.37,2.37-3.39l-100.54-129.99c-5.75-7.45-4.4-17.94,3.05-23.36,7.11-5.75,17.6-4.4,23.36,3.05Z" fill="#1bc197" stroke-width="0"/><path d="m915.36,1795.51c-16.59-10.16-35.54-14.89-53.15-13.54-38.93,3.39-74.81-3.39-106.97-20.65-33.85-17.94-56.53-53.82-61.61-97.83-7.45-54.84-56.87-90.72-110.36-83.95-60.93,7.79-105.96-20.31-125.25-35.54-57.21,37.58-116.45,75.49-178.06,114.42-8.46,6.77-13.88,18.62-13.88,31.48.34,12.53,6.09,24.37,15.91,32.5l463.77,368.31c14.22,11.17,33.51,12.53,48.41,2.71,68.72-45.36,138.12-95.46,207.17-149.63-6.77-82.94-50.1-126.27-85.98-148.27Zm-168.92,140.49c-3.05,4.06-7.79,6.09-12.53,6.09-3.72,0-7.79-1.35-10.83-4.06l-219.02-183.82c-7.11-6.09-8.12-16.59-2.03-23.7,5.75-7.11,16.25-7.79,23.36-2.03l219.02,184.16c7.11,5.75,8.12,16.25,2.03,23.36Z" fill="#1bc197" stroke-width="0"/><path d="m365.94,1322.94v-239.67c0-9.14,7.45-16.59,16.59-16.59s16.59,7.45,16.59,16.59v250.17c71.43,21.33,147.93,34.87,229.18,39.95v-245.43c0-9.14,7.45-16.59,16.59-16.59s16.59,7.45,16.59,16.59v238.66c362.56-252.54,621.86-477.65,809.4-700.74-157.41,88.02-388.28,143.87-645.22,143.87C433.98,809.74,102.57,680.09,0,504.06v496.61c0,49.09,19.3,96.48,52.81,129.31,30.47,30.13,63.3,57.55,97.49,82.26v-247.8c0-9.14,7.45-16.59,16.59-16.59s16.93,7.45,16.93,16.59v270.48c56.19,36.56,116.79,65.67,182.12,88.02Z" fill="#1bc197" stroke-width="0"/></svg>