<svg id="house-tree-icon" xmlns="http://www.w3.org/2000/svg" width="49" height="49" viewBox="0 0 49 49">
  <rect id="Frame_3_Background_Mask_" data-name="Frame 3 (Background/Mask)" width="49" height="49" fill="none"/>
  <path id="house-with-a-garden" d="M23.569,2a1.563,1.563,0,0,0-1.062.427l-7.74,6.334a5.358,5.358,0,0,0-2.2-.476,6.1,6.1,0,0,0-4.026,1.66,4.965,4.965,0,0,0-.687-.089A6.237,6.237,0,0,0,1.768,15.08,6.164,6.164,0,0,0,0,19.284a6.074,6.074,0,0,0,.97,3.143A6.073,6.073,0,0,0,0,25.569a6.153,6.153,0,0,0,3.861,5.567A6.152,6.152,0,0,0,9.428,35,5.233,5.233,0,0,0,11,34.733V38.14a1.571,1.571,0,1,0,3.143,0V33.426a1.571,1.571,0,0,0-.052-.414,4.534,4.534,0,0,0,1.623.414,6.043,6.043,0,0,0,1.571-.23v6.515H36.14a3.142,3.142,0,0,0,3.143-3.143V19.284h1.571a1.572,1.572,0,0,0,1.571-1.571,1.555,1.555,0,0,0-.5-1.142l-2.639-2.16V8.285a1.572,1.572,0,0,0-1.571-1.571H36.14a1.572,1.572,0,0,0-1.571,1.571v2.271l-9.937-8.13A1.563,1.563,0,0,0,23.569,2Zm-11,9.428a3.112,3.112,0,0,1,2.949,2.118l.4,1.129,1.194-.08c.271-.018.319-.025.175-.025a3.09,3.09,0,0,1,3.041,3.876l-.23.951.755.629a3.1,3.1,0,0,1-.97,5.349l-1.129.4.08,1.194c.018.271.025.319.025.175a3.119,3.119,0,0,1-3.143,3.143,3.07,3.07,0,0,1-1.534-.423l-1.3-.737-.8,1.261a3.116,3.116,0,0,1-5.638-.773L6.2,28.8l-.81-.242a3.1,3.1,0,0,1-1.424-5.079l.948-1.053-.948-1.053a3.083,3.083,0,0,1,.258-4.435l.476-.42.052-.632A3.065,3.065,0,0,1,8.59,13.1l.951.23.629-.755A3.083,3.083,0,0,1,12.57,11.428ZM28.283,25.569h6.285v6.285H28.283Z" transform="translate(0 -0.377)" fill="#1bc197"/>
</svg>
