<svg xmlns="http://www.w3.org/2000/svg" width="19.3" height="19.3" viewBox="0 0 19.3 19.3">
  <path id="Icon_awesome-phone-alt-ftr" data-name="Icon awesome-phone-alt-ftr" d="M15.467,11.251,11.985,9.759a.746.746,0,0,0-.871.215L9.571,11.858a11.526,11.526,0,0,1-5.51-5.51L5.946,4.805a.744.744,0,0,0,.215-.871L4.668.451A.751.751,0,0,0,3.813.019L.578.766A.746.746,0,0,0,0,1.493,14.428,14.428,0,0,0,14.429,15.922a.746.746,0,0,0,.728-.578L15.9,12.11a.755.755,0,0,0-.436-.858Z" transform="translate(3.852 0) rotate(14)" fill="#1bc197"/>
</svg>
