<svg xmlns="http://www.w3.org/2000/svg" width="42" height="42" viewBox="0 0 42 42">
  <g id="icon-alert-warning" transform="translate(6 6)">
    <circle id="Ellipse_180" data-name="Ellipse 180" cx="21" cy="21" r="21" transform="translate(-6 -6)" fill="rgba(255,255,255,0.38)"/>
    <path id="Path_3" data-name="Path 3" d="M15,0A15,15,0,1,0,30,15,15,15,0,0,0,15,0Zm0,24.575A1.962,1.962,0,0,1,13.025,22.5,1.962,1.962,0,0,1,15,20.425,1.926,1.926,0,0,1,16.975,22.5,1.943,1.943,0,0,1,15,24.575Zm.778-7.924c-.3,1.019-1.24,1.036-1.554,0a37.556,37.556,0,0,1-1.645-8.678c0-3.887,4.864-3.906,4.864,0A38.443,38.443,0,0,1,15.778,16.651Z" fill="#fff"/>
  </g>
</svg>
