<svg id="icon-view" xmlns="http://www.w3.org/2000/svg" width="31.796" height="31.796" viewBox="0 0 31.796 31.796">
  <path id="Path_63339" data-name="Path 63339" d="M10.117,0H2.65A2.65,2.65,0,0,0,0,2.65v7.479a2.65,2.65,0,1,0,5.3,0V5.3h4.818a2.65,2.65,0,1,0,0-5.3Z" fill="#fff"/>
  <path id="Path_63340" data-name="Path 63340" d="M10.117,1383.119H5.3v-4.83a2.65,2.65,0,1,0-5.3,0v7.479a2.65,2.65,0,0,0,2.65,2.65h7.468a2.65,2.65,0,1,0,0-5.3Z" transform="translate(0 -1356.623)" fill="#fff"/>
  <path id="Path_63341" data-name="Path 63341" d="M1385.759,1375.64a2.65,2.65,0,0,0-2.65,2.65v4.83h-4.83a2.65,2.65,0,0,0,0,5.3h7.479a2.65,2.65,0,0,0,2.65-2.65v-7.479A2.65,2.65,0,0,0,1385.759,1375.64Z" transform="translate(-1356.613 -1356.623)" fill="#fff"/>
  <path id="Path_63342" data-name="Path 63342" d="M1385.759,0h-7.479a2.65,2.65,0,0,0,0,5.3h4.83v4.83a2.65,2.65,0,1,0,5.3,0V2.65A2.65,2.65,0,0,0,1385.759,0Z" transform="translate(-1356.613)" fill="#fff"/>
</svg>
