<svg xmlns="http://www.w3.org/2000/svg" width="39.984" height="40.067" viewBox="0 0 39.984 40.067">
  <g id="icon-edit" transform="translate(-6.676 -6.837)">
    <rect id="Rectangle_8231" data-name="Rectangle 8231" width="3.897" height="7.442" transform="translate(38.642 9.593) rotate(-45)" fill="#fff"/>
    <rect id="Rectangle_8232" data-name="Rectangle 8232" width="22.282" height="7.442" transform="translate(22.448 25.787) rotate(-45)" fill="#fff"/>
    <path id="Path_63333" data-name="Path 63333" d="M771.752,981.442l-5.263-5.262-1.71,6.972Z" transform="translate(-744.481 -949.954)" fill="#fff"/>
    <path id="Path_63334" data-name="Path 63334" d="M292.051,582.763h0a1.354,1.354,0,0,0-1.354,1.354v9.315a3.466,3.466,0,0,1-3.466,3.466H267.844a3.466,3.466,0,0,1-3.466-3.466V574.044a3.466,3.466,0,0,1,3.466-3.466h9.223a1.354,1.354,0,0,0,1.354-1.354h0a1.354,1.354,0,0,0-1.354-1.354h-9.175a6.234,6.234,0,0,0-4.382,1.778,6.134,6.134,0,0,0-1.839,4.4v19.34a6.234,6.234,0,0,0,1.778,4.383,6.135,6.135,0,0,0,4.4,1.839h19.34a6.234,6.234,0,0,0,4.382-1.778,6.134,6.134,0,0,0,1.839-4.4v-9.315A1.354,1.354,0,0,0,292.051,582.763Z" transform="translate(-254.994 -552.7)" fill="#fff"/>
  </g>
</svg>
