<svg xmlns="http://www.w3.org/2000/svg" width="271.002" height="320.743" viewBox="0 0 271.002 320.743">
  <g id="leaf-bg" transform="translate(0 -0.009)">
    <path id="Path_37" data-name="Path 37" d="M0,417.49c0,35.449,22.855,60.755,87.243,60.755C87.243,439.888,37.387,417.49,0,417.49Z" transform="translate(0 -319.167)" fill="rgba(221,235,240,0.27)"/>
    <path id="Path_38" data-name="Path 38" d="M838.3,40.62c-.012.012-.023.012-.033.024Z" transform="translate(-640.862 -31.047)" fill="rgba(221,235,240,0.27)"/>
    <path id="Path_39" data-name="Path 39" d="M838.3,40.62c-.012.012-.023.012-.033.024Z" transform="translate(-640.862 -31.047)" fill="rgba(221,235,240,0.27)"/>
    <path id="Path_40" data-name="Path 40" d="M490.375,36.033l.04.026c-.221.207-.431.424-.652.633a15.649,15.649,0,0,1-1.531,1.486,204.327,204.327,0,0,0-30.984,38.178c-17.012,27.143-26.29,56.53-26.29,82.724v92.354c0,.111,0,.219-.007.327v68.99h26.288v-94.04h.009V159.081c0-29.978,23.6-73.945,63.569-103.669a166.621,166.621,0,0,1,37.2-20.947c-7.7,6.916-17.667,16-27.972,26.835-25.669,26.955-53.431,64.671-53.431,106.354,22.12,0,63.409-37.269,92.2-81.665C587.181,57.677,600.466,26.472,600.466.181c-14.083,0-60.336-4.766-110.091,35.854Z" transform="translate(-329.464 0)" fill="rgba(221,235,240,0.27)"/>
  </g>
</svg>
