<svg xmlns="http://www.w3.org/2000/svg" xmlns:xlink="http://www.w3.org/1999/xlink" width="118" height="93" viewBox="0 0 118 93">
  <defs>
    <linearGradient id="linear-gradient" x1="0.5" x2="0.5" y2="1" gradientUnits="objectBoundingBox">
      <stop offset="0" stop-color="#fff"/>
      <stop offset="1" stop-color="#f8f5f1"/>
    </linearGradient>
  </defs>
  <g id="listings-btn" transform="translate(0 -55)">
    <g id="Rectangle_103" data-name="Rectangle 103" transform="translate(0 55)" stroke="#f5ebd9" stroke-width="1" fill="url(#linear-gradient)">
      <rect width="118" height="93" rx="12" stroke="none"/>
      <rect x="0.5" y="0.5" width="117" height="92" rx="11.5" fill="none"/>
    </g>
    <path id="Icon_awesome-home" data-name="Icon awesome-home" d="M19.714,10.425,6.75,21.1V32.625A1.125,1.125,0,0,0,7.875,33.75l7.879-.02A1.125,1.125,0,0,0,16.874,32.6v-6.73A1.125,1.125,0,0,1,18,24.75h4.5a1.125,1.125,0,0,1,1.125,1.125V32.6a1.125,1.125,0,0,0,1.125,1.129l7.876.022a1.125,1.125,0,0,0,1.125-1.125V21.094L20.789,10.425A.857.857,0,0,0,19.714,10.425Zm20.477,7.257-5.878-4.845V3.1a.844.844,0,0,0-.844-.844H29.531a.844.844,0,0,0-.844.844V8.2l-6.3-5.179a3.375,3.375,0,0,0-4.289,0L.305,17.681A.844.844,0,0,0,.193,18.87l1.793,2.18a.844.844,0,0,0,1.189.115L19.714,7.542a.857.857,0,0,1,1.076,0l16.54,13.622a.844.844,0,0,0,1.188-.112l1.793-2.18a.844.844,0,0,0-.12-1.19Z" transform="translate(39.001 73)" fill="#1bc197"/>
    <path id="Path_63400" data-name="Path 63400" d="M3.708-12.456H1.116V0H7.83L8.1-2.088H3.708Zm6.876-1.962A1.428,1.428,0,0,0,9.09-12.96a1.443,1.443,0,0,0,1.494,1.476,1.443,1.443,0,0,0,1.494-1.476A1.428,1.428,0,0,0,10.584-14.418Zm1.26,4.878h-2.5V0h2.5Zm5.076-.288c-2.16,0-3.492,1.242-3.492,2.862,0,1.386.774,2.25,2.538,2.862,1.53.522,1.854.792,1.854,1.512,0,.684-.5,1.062-1.332,1.062a3.743,3.743,0,0,1-2.268-.9L13.014-1.08A5.083,5.083,0,0,0,16.578.288c2.124,0,3.8-1.116,3.8-3.06,0-1.62-.954-2.412-2.646-2.988-1.512-.5-1.818-.774-1.818-1.35,0-.558.414-.9,1.152-.9a3.7,3.7,0,0,1,2.07.72l.936-1.386A4.63,4.63,0,0,0,16.92-9.828ZM26.244-2a1.825,1.825,0,0,1-.954.288c-.54,0-.81-.324-.81-1.044v-5h1.728L26.46-9.54H24.48v-2.394l-2.5.306V-9.54H20.754v1.782h1.224v5.04c0,1.872.918,3.006,2.808,3.006a3.822,3.822,0,0,0,2.3-.738Zm3.006-12.42a1.428,1.428,0,0,0-1.494,1.458,1.443,1.443,0,0,0,1.494,1.476,1.443,1.443,0,0,0,1.494-1.476A1.428,1.428,0,0,0,29.25-14.418ZM30.51-9.54h-2.5V0h2.5Zm7.056-.288a3.1,3.1,0,0,0-2.592,1.476l-.18-1.188H32.616V0h2.5V-6.606c.468-.828.972-1.332,1.548-1.332.5,0,.81.306.81,1.26V0h2.5V-7.038C39.978-8.766,39.078-9.828,37.566-9.828Zm11.646-1.08a6.636,6.636,0,0,1-3.942,1.1c-2.286-.018-3.8,1.3-3.8,3.438A2.83,2.83,0,0,0,43.02-3.654,2.186,2.186,0,0,0,41.976-1.89c0,1.026.756,1.836,2.736,1.836h1.026c.936,0,1.386.4,1.386,1.1S46.692,2.25,45.2,2.25c-1.566,0-1.908-.414-1.908-1.332H41.058c0,1.854.864,3.024,4.1,3.024,2.916,0,4.464-1.206,4.464-3.078,0-1.548-1.278-2.7-3.366-2.7H45.054c-.81,0-.972-.288-.972-.648a.755.755,0,0,1,.306-.648,4.279,4.279,0,0,0,.99.108C47.628-3.024,49-4.338,49-6.21a2.494,2.494,0,0,0-1.62-2.466,6.533,6.533,0,0,0,2.466-.342ZM45.27-8.154c.9,0,1.332.54,1.332,1.71,0,1.3-.468,1.818-1.332,1.818-.828,0-1.332-.63-1.332-1.782C43.938-7.578,44.424-8.154,45.27-8.154Zm8.442-1.674c-2.16,0-3.492,1.242-3.492,2.862,0,1.386.774,2.25,2.538,2.862,1.53.522,1.854.792,1.854,1.512,0,.684-.5,1.062-1.332,1.062a3.743,3.743,0,0,1-2.268-.9L49.806-1.08A5.083,5.083,0,0,0,53.37.288c2.124,0,3.8-1.116,3.8-3.06,0-1.62-.954-2.412-2.646-2.988-1.512-.5-1.818-.774-1.818-1.35,0-.558.414-.9,1.152-.9a3.7,3.7,0,0,1,2.07.72l.936-1.386A4.63,4.63,0,0,0,53.712-9.828Z" transform="translate(31 131)" fill="#415e8f"/>
  </g>
</svg>
