<?xml version="1.0" encoding="UTF-8"?><svg id="uuid-6e5e5871-1255-474d-b2d6-3c4159eae406" xmlns="http://www.w3.org/2000/svg" xmlns:xlink="http://www.w3.org/1999/xlink" viewBox="0 0 2688 4424"><defs><clipPath id="uuid-45b1c22e-f0fc-4914-92f4-5264e8fd4fdf"><rect width="2688" height="4424" fill="none" stroke-width="0"/></clipPath></defs><g id="uuid-49b85f49-6696-4408-b358-4141dd1b4e69"><g clip-path="url(#uuid-45b1c22e-f0fc-4914-92f4-5264e8fd4fdf)"><g id="uuid-907e47c0-cb08-42f6-bcec-2a8976be47c6"><path id="uuid-ee8ca213-a2a1-4c63-b0c0-1c4252e6f20e" d="m805.78,3605.37h-18.67c-5.15.01-9.33,4.18-9.34,9.34v46.69h37.35v-46.69c-.01-5.15-4.18-9.33-9.34-9.34" stroke-width="0"/><path id="uuid-26a4aa4a-9283-4411-88bc-5273e2b3abe4" d="m796.44,3904.16c2.5,0,4.9-1.01,6.67-2.79,8.13-8.3,198.74-203.85,198.74-314.66s-91.97-205.41-205.41-205.41-205.41,91.97-205.41,205.41,190.65,306.38,198.74,314.66c1.76,1.78,4.16,2.78,6.67,2.79m-129.34-359.28c-2.7-4.39-1.33-10.14,3.05-12.85l121.39-74.7c3-1.85,6.78-1.85,9.78,0l121.39,74.7c4.39,2.7,5.76,8.45,3.06,12.84-1.7,2.77-4.73,4.46-7.98,4.45-1.72,0-3.42-.47-4.88-1.38l-116.49-71.68-116.49,71.68c-4.39,2.71-10.14,1.34-12.85-3.05h0m63.98,135.16c-15.46-.02-27.99-12.55-28.01-28.01v-93.37c0-5.16,4.18-9.34,9.34-9.34s9.34,4.18,9.34,9.34h0v93.37c.01,5.15,4.18,9.33,9.34,9.34h28.01v-46.69c.02-15.46,12.55-27.99,28.01-28.01h18.67c15.46.02,27.99,12.55,28.01,28.01v46.69h28.01c5.15-.01,9.33-4.18,9.34-9.34v-93.37c0-5.16,4.18-9.34,9.34-9.34s9.34,4.18,9.34,9.34h0v93.37c-.02,15.46-12.55,27.99-28.01,28.01h-130.73Z" fill="#1bc197" stroke-width="0"/><path id="uuid-75166f4e-19a1-41da-b1d1-8b8908aaf9b8" d="m870.22,3855.6c-4.86,5.76-9.61,11.01-14.2,16.06,34.93,6.34,52.47,17.29,52.47,23.15,0,9.89-42.58,28.01-112.05,28.01s-112.05-18.12-112.05-28.01c0-5.76,17.56-16.81,52.47-23.15-4.67-5.03-9.34-10.28-14.2-16.06-31.57,7.09-56.95,19.79-56.95,39.21,0,30.62,65.73,46.69,130.65,46.69s130.65-16.06,130.65-46.69c0-19.42-25.4-32.12-56.95-39.21" stroke-width="0"/></g></g></g></svg>