<?xml version="1.0" encoding="UTF-8"?><svg id="uuid-6a11fc43-8b35-42db-a843-bc0e9c2d9add" xmlns="http://www.w3.org/2000/svg" viewBox="0 0 570.73 778.26"><g id="uuid-480fe890-4c45-42aa-a234-7866ace61540"><path id="uuid-ab01c923-9967-4f4a-b51b-271cb1cf8b75" d="m298.34,311.29h-25.94c-7.15.01-12.96,5.81-12.98,12.98v64.86h51.89v-64.86c-.01-7.15-5.81-12.96-12.98-12.98" stroke-width="0"/><path id="uuid-67818d57-1cfb-406b-a33c-278463b6de58" d="m285.37,726.38c3.47,0,6.81-1.4,9.27-3.88,11.29-11.53,276.1-283.2,276.1-437.14S442.96,0,285.37,0,0,127.77,0,285.36s264.86,425.64,276.1,437.14c2.45,2.47,5.78,3.86,9.27,3.88M105.68,227.25c-3.75-6.1-1.85-14.09,4.24-17.85l168.64-103.78c4.17-2.57,9.42-2.57,13.59,0l168.64,103.78c6.1,3.75,8,11.74,4.25,17.84-2.36,3.85-6.57,6.2-11.09,6.18-2.39,0-4.75-.65-6.78-1.92l-161.83-99.58-161.83,99.58c-6.1,3.76-14.09,1.86-17.85-4.24h0m88.88,187.77c-21.48-.03-38.88-17.44-38.91-38.91v-129.71c0-7.17,5.81-12.98,12.98-12.98s12.98,5.81,12.98,12.98h0v129.71c.01,7.15,5.81,12.96,12.98,12.98h38.91v-64.86c.03-21.48,17.44-38.88,38.91-38.91h25.94c21.48.03,38.88,17.44,38.91,38.91v64.86h38.91c7.15-.01,12.96-5.81,12.98-12.98v-129.71c0-7.17,5.81-12.98,12.98-12.98s12.98,5.81,12.98,12.98h0v129.71c-.03,21.48-17.44,38.88-38.91,38.91h-181.62Z" fill="#1bc197" stroke-width="0"/><path id="uuid-66feb526-0bdb-4b87-8ea0-9a2fcee82765" d="m387.86,658.92c-6.75,8-13.35,15.3-19.73,22.31,48.53,8.81,72.89,24.02,72.89,32.16,0,13.74-59.15,38.91-155.66,38.91s-155.66-25.17-155.66-38.91c0-8,24.4-23.35,72.89-32.16-6.49-6.99-12.98-14.28-19.73-22.31-43.86,9.85-79.12,27.49-79.12,54.47,0,42.54,91.32,64.86,181.51,64.86s181.51-22.31,181.51-64.86c0-26.98-35.29-44.62-79.12-54.47" stroke-width="0"/></g></svg>