<svg xmlns="http://www.w3.org/2000/svg" xmlns:xlink="http://www.w3.org/1999/xlink" width="89.007" height="80.368" viewBox="0 0 89.007 80.368">
  <defs>
    <linearGradient id="linear-gradient" x1="0.5" x2="0.5" y2="1" gradientUnits="objectBoundingBox">
      <stop offset="0" stop-color="#1bc197"/>
      <stop offset="1" stop-color="#0e614c"/>
    </linearGradient>
    <filter id="location-icon-green" x="0" y="0" width="89.007" height="80.368" filterUnits="userSpaceOnUse">
      <feOffset dy="2" input="SourceAlpha"/>
      <feGaussianBlur stdDeviation="2" result="blur"/>
      <feFlood flood-opacity="0.369"/>
      <feComposite operator="in" in2="blur"/>
      <feComposite in="SourceGraphic"/>
    </filter>
  </defs>
  <g transform="matrix(1, 0, 0, 1, 0, 0)" filter="url(#location-icon-green)">
    <path id="location-icon-green-2" data-name="location-icon-green" d="M11.016,223.016H21.152a21.961,21.961,0,0,0,1.115,2.388c.109.21.24.426.361.633l1.941,3.429-14.2-2.642c.216-1.284.432-2.55.642-3.808m30.628-21.8a16.311,16.311,0,0,1,14.349,24.062s-.243.435-.269.473L43.5,247.321a1.953,1.953,0,0,1-3.716,0L27.566,225.753c-.086-.151-.183-.311-.263-.47a16.314,16.314,0,0,1,14.346-24.065m20.491,21.8a21.267,21.267,0,0,1-1.112,2.385s-.325.592-.361.639l-5.2,9.172,19.48,3.615q-.716-4.231-1.391-8.222-.657-3.891-1.281-7.58Zm14.574,26.225q.8,4.7,1.639,9.692l1.8,10.651H74.487q-3.9-6.426-7.5-12.4-3.476-5.757-6.713-11.133,8.124,1.586,16.432,3.2m-14.2,20.332q-3.947-7.127-7.568-13.716l-5.509-10.027-5.275,9.308a2.639,2.639,0,0,1-5.03,0l-8.444-14.891-2.55-.5q-9.781-1.908-19.317-3.775l-2.6,15.48q-1.447,8.58-3.065,18.122H62.5Z" transform="translate(2.85 -197.22)" fill-rule="evenodd" fill="url(#linear-gradient)"/>
  </g>
</svg>
