<?xml version="1.0" encoding="UTF-8"?><svg id="uuid-1bf4f4f2-cc26-4c56-942b-d5fd05016149" xmlns="http://www.w3.org/2000/svg" viewBox="0 0 1473 1671.86"><path d="m524.79,1640.97c-118.25-35.43-224.02-99.77-309.07-184.83-99.86-99.86-171.17-228.25-200.66-371.89-9.87-48.09-15.06-97.88-15.06-148.88,0-203.37,82.44-387.49,215.72-520.78,81.42-81.42,181.81-143.86,293.97-180.13v245.64c-49.37,24.64-94.16,57.07-132.78,95.68-79.01,79.01-132.14,183.91-145.58,300.88-2.21,19.26-3.36,38.85-3.36,58.7,0,140.43,56.91,267.56,148.93,359.58s219.15,148.93,359.58,148.93,267.57-56.91,359.58-148.93c92.02-92.02,148.93-219.15,148.93-359.58s-56.91-267.57-148.93-359.59c-38.61-38.61-83.41-71.04-132.78-95.68v-237.64c267.76,116.02,443.71,380.8,443.71,676.05,0,406.98-329.93,736.91-736.91,736.91-49.51,0-98.12-4.97-145.3-14.45" fill="#f4ce90" stroke-width="0"/><path d="m963.3,234.46c112.16,36.27,212.55,98.71,293.97,180.13,133.29,133.29,215.73,317.41,215.73,520.78s-82.44,387.49-215.73,520.77c-133.28,133.28-317.4,215.72-520.77,215.72-73.59,0-144.65-10.8-211.7-30.89,47.18,9.48,95.79,14.45,145.3,14.45,406.98,0,736.91-329.93,736.91-736.91,0-295.25-175.95-560.03-443.71-676.05v-8" fill="#bf914c" stroke-width="0"/><path d="m795.18,14.35c41.02,21.36,69.2,64.31,69.2,113.52v453.62c0,70.33-57.55,127.87-127.88,127.87-34.27,0-65.5-13.66-88.52-35.81,14.43,5.69,30.13,8.81,46.52,8.81,70.33,0,127.88-57.54,127.88-127.87V100.87c0-32.33-9.79-62.91-27.2-86.52" fill="#bf914c" stroke-width="0"/><path d="m736.5,0c21.12,0,41.08,5.19,58.68,14.35,17.41,23.61,27.2,54.19,27.2,86.52v453.62c0,70.33-57.55,127.87-127.88,127.87-16.39,0-32.09-3.12-46.52-8.81-24.22-23.3-39.36-56-39.36-92.06V127.87c0-70.33,57.55-127.87,127.88-127.87" fill="#f4ce90" stroke-width="0"/></svg>