<?xml version="1.0" encoding="UTF-8"?><svg id="uuid-6133ce4e-1b12-41e6-a125-b4d929ccbd2c" xmlns="http://www.w3.org/2000/svg" viewBox="0 0 1676.1 1177.11"><path d="m1085.48,795.4h54.21c-83.73,223-298.88,381.71-551.14,381.71C263.51,1177.11,0,913.6,0,588.55c0-62.7,9.84-123.1,28-179.77-11.09,44.48-16.81,90.45-16.81,136.94,0,312.68,253.48,566.16,566.16,566.16,216.82,0,413.45-123.68,508.12-316.48" fill="#d8ba7d" fill-rule="evenodd" stroke-width="0"/><path d="m588.55,0c252.26,0,467.41,158.71,551.14,381.7h-212.66c-69.71-113.83-195.22-189.78-338.48-189.78-99.72,0-190.84,36.81-260.53,97.57-83.39,72.72-136.1,179.73-136.1,299.06,0,219.05,177.58,396.63,396.63,396.63,143.26,0,268.77-75.96,338.48-189.79h158.45c-94.68,192.8-291.3,316.48-508.12,316.48-312.68,0-566.16-253.48-566.16-566.16,0-46.49,5.73-92.46,16.81-136.94,26.95-84.1,72.29-159.94,131.29-222.84C266.66,71.5,419.25,0,588.55,0" fill="#f4ce90" fill-rule="evenodd" stroke-width="0"/><path d="m1646.38,567l29.72,21.55-191.92,139.14-191.92,139.14v-169.53h-648.26v-52.78h692.5v139.68l309.88-217.2" fill="#d8ba7d" fill-rule="evenodd" stroke-width="0"/><path d="m644,479.8h648.26v-169.53l191.92,139.14,130.78,94.82,31.42,22.77-309.88,217.2v-139.68h-692.5v-164.72" fill="#f4ce90" fill-rule="evenodd" stroke-width="0"/></svg>