<svg id="mail-icon" xmlns="http://www.w3.org/2000/svg" xmlns:xlink="http://www.w3.org/1999/xlink" width="40.975" height="40.975" viewBox="0 0 40.975 40.975">
  <defs>
    <filter id="Ellipse_228" x="0" y="0" width="40.975" height="40.975" filterUnits="userSpaceOnUse">
      <feOffset dy="3" input="SourceAlpha"/>
      <feGaussianBlur stdDeviation="3" result="blur"/>
      <feFlood flood-opacity="0.29" result="color"/>
      <feComposite operator="out" in="SourceGraphic" in2="blur"/>
      <feComposite operator="in" in="color"/>
      <feComposite operator="in" in2="SourceGraphic"/>
    </filter>
  </defs>
  <g data-type="innerShadowGroup">
    <path id="Ellipse_228-2" data-name="Ellipse 228" d="M20.487,0A20.487,20.487,0,1,1,0,20.487,20.487,20.487,0,0,1,20.487,0Z" fill="#f5ebd9"/>
    <g transform="matrix(1, 0, 0, 1, 0, 0)" filter="url(#Ellipse_228)">
      <path id="Ellipse_228-3" data-name="Ellipse 228" d="M20.487,0A20.487,20.487,0,1,1,0,20.487,20.487,20.487,0,0,1,20.487,0Z" fill="#fff"/>
    </g>
  </g>
  <path id="Icon_awesome-envelope" data-name="Icon awesome-envelope" d="M19.606,9.449a.235.235,0,0,1,.379.183v7.982a1.874,1.874,0,0,1-1.874,1.874H1.874A1.874,1.874,0,0,1,0,17.615V9.637a.233.233,0,0,1,.379-.183c.874.679,2.034,1.542,6.015,4.434.824.6,2.213,1.866,3.6,1.858,1.393.012,2.81-1.28,3.6-1.858C17.577,11,18.732,10.129,19.606,9.449ZM9.992,14.492c.906.016,2.209-1.14,2.865-1.616,5.18-3.759,5.574-4.087,6.768-5.024a.934.934,0,0,0,.359-.738V6.374A1.874,1.874,0,0,0,18.111,4.5H1.874A1.874,1.874,0,0,0,0,6.374v.742a.94.94,0,0,0,.359.738c1.194.933,1.589,1.265,6.768,5.024C7.783,13.353,9.087,14.508,9.992,14.492Z" transform="translate(10.495 8.493)" fill="#1bc197" stroke="#ffcf80" stroke-width="1"/>
</svg>
