<svg xmlns="http://www.w3.org/2000/svg" width="21.432" height="16.309" viewBox="0 0 21.432 16.309">
  <g id="min-price" transform="translate(4.339 -7.536)">
    <path id="Icon_awesome-arrow-down" data-name="Icon awesome-arrow-down" d="M8.882,6.217l.462.462a.5.5,0,0,1,0,.706L5.3,11.433a.5.5,0,0,1-.706,0L.544,7.385a.5.5,0,0,1,0-.706l.462-.462a.5.5,0,0,1,.714.008L4.111,8.735V2.75a.5.5,0,0,1,.5-.5h.666a.5.5,0,0,1,.5.5V8.735L8.168,6.225a.5.5,0,0,1,.714-.008Z" transform="translate(7.602 7.775)" fill="#ffcf80"/>
    <path id="Icon_awesome-dollar-sign" data-name="Icon awesome-dollar-sign" d="M6.665,7.434,3.225,6.428a.94.94,0,0,1,.264-1.841H5.6a1.944,1.944,0,0,1,1.089.334.5.5,0,0,0,.621-.064L8.42,3.775a.516.516,0,0,0-.057-.78,4.5,4.5,0,0,0-2.755-.956V.51A.511.511,0,0,0,5.1,0H4.079a.511.511,0,0,0-.51.51V2.039h-.08A3.49,3.49,0,0,0,.017,5.848,3.646,3.646,0,0,0,2.687,8.925l3.265.956a.94.94,0,0,1-.264,1.841H3.575a1.944,1.944,0,0,1-1.089-.334.5.5,0,0,0-.621.064L.756,12.534a.516.516,0,0,0,.057.78,4.5,4.5,0,0,0,2.755.956V15.8a.511.511,0,0,0,.51.51H5.1a.511.511,0,0,0,.51-.51V14.264a3.6,3.6,0,0,0,3.367-2.316A3.5,3.5,0,0,0,6.665,7.434Z" transform="translate(-4.342 7.536)" fill="#1bc197"/>
  </g>
</svg>
