<svg id="phone_icon" data-name="phone  icon" xmlns="http://www.w3.org/2000/svg" xmlns:xlink="http://www.w3.org/1999/xlink" width="36" height="36" viewBox="0 0 36 36">
  <defs>
    <filter id="Ellipse_4" x="0" y="0" width="36" height="36" filterUnits="userSpaceOnUse">
      <feOffset dy="6" input="SourceAlpha"/>
      <feGaussianBlur stdDeviation="6" result="blur"/>
      <feFlood flood-opacity="0.104" result="color"/>
      <feComposite operator="out" in="SourceGraphic" in2="blur"/>
      <feComposite operator="in" in="color"/>
      <feComposite operator="in" in2="SourceGraphic"/>
    </filter>
    <linearGradient id="linear-gradient" x1="0.5" x2="0.5" y2="1" gradientUnits="objectBoundingBox">
      <stop offset="0" stop-color="#35ebbd"/>
      <stop offset="1" stop-color="#1ca180"/>
    </linearGradient>
    <filter id="Ellipse_5" x="3" y="3" width="30" height="30" filterUnits="userSpaceOnUse">
      <feOffset dy="8" input="SourceAlpha"/>
      <feGaussianBlur stdDeviation="6" result="blur-2"/>
      <feFlood flood-opacity="0.161" result="color-2"/>
      <feComposite operator="out" in="SourceGraphic" in2="blur-2"/>
      <feComposite operator="in" in="color-2"/>
      <feComposite operator="in" in2="SourceGraphic"/>
    </filter>
  </defs>
  <g data-type="innerShadowGroup">
    <circle id="Ellipse_4-2" data-name="Ellipse 4" cx="18" cy="18" r="18" fill="rgba(117,161,185,0.23)" opacity="0.85"/>
    <g transform="matrix(1, 0, 0, 1, 0, 0)" filter="url(#Ellipse_4)">
      <circle id="Ellipse_4-3" data-name="Ellipse 4" cx="18" cy="18" r="18" fill="#fff" opacity="0.85"/>
    </g>
  </g>
  <circle id="Ellipse_3" data-name="Ellipse 3" cx="16" cy="16" r="16" transform="translate(2 2)" fill="#fff"/>
  <g data-type="innerShadowGroup">
    <circle id="Ellipse_5-2" data-name="Ellipse 5" cx="15" cy="15" r="15" transform="translate(3 3)" fill="url(#linear-gradient)"/>
    <g transform="matrix(1, 0, 0, 1, 0, 0)" filter="url(#Ellipse_5)">
      <circle id="Ellipse_5-3" data-name="Ellipse 5" cx="15" cy="15" r="15" transform="translate(3 3)" fill="#fff"/>
    </g>
  </g>
  <path id="Path_138" data-name="Path 138" d="M38.567,35.8c-.491-.4-1.016-.751-1.533-1.114-1.031-.724-1.974-.78-2.743.385a1.2,1.2,0,0,1-1.669.4,7.4,7.4,0,0,1-3.878-3.779,1.455,1.455,0,0,1,.472-2.041,1.448,1.448,0,0,0,.833-1.281,8.654,8.654,0,0,0-2.875-3.921,1.457,1.457,0,0,0-1,0,2.817,2.817,0,0,0-1.911,4.005A20.787,20.787,0,0,0,35.782,40.024a5.392,5.392,0,0,0,.821.232,3.744,3.744,0,0,0,3.077-2.341c.4-1.128-.444-1.575-1.112-2.112" transform="translate(-13.856 -14.119)" fill="#f1f2f2"/>
  <path id="Path_139" data-name="Path 139" d="M42.3,24.248c3.936.605,5.751,2.477,6.253,6.441.046.366-.09.917.433.927.546.01.414-.532.419-.9a7.482,7.482,0,0,0-6.99-7.322c-.285.041-.875-.2-.912.442-.025.431.472.36.8.41" transform="translate(-23.625 -13.576)" fill="#f1f2f2"/>
  <path id="Path_140" data-name="Path 140" d="M43.816,27.712c-.379-.046-.878-.224-.967.3-.092.551.464.5.823.576,2.431.543,3.278,1.428,3.678,3.84.058.351-.057.9.54.808.443-.067.283-.536.32-.81a4.958,4.958,0,0,0-4.393-4.714" transform="translate(-24.372 -15.953)" fill="#f1f2f2"/>
  <path id="Path_141" data-name="Path 141" d="M44.759,32.075c-.253.006-.5.034-.594.3-.14.4.154.5.452.548A1.772,1.772,0,0,1,46.24,34.67c.027.27.2.488.459.458.361-.043.394-.365.383-.67a2.626,2.626,0,0,0-2.322-2.382" transform="translate(-25.092 -18.424)" fill="#f1f2f2"/>
</svg>
