<svg xmlns="http://www.w3.org/2000/svg" width="26.924" height="27.921" viewBox="0 0 26.924 27.921">
  <path id="price-icon" d="M14.966,2a1,1,0,0,0-.676.267l-.021.018-10.878,8.9-.037.029-.037.031v0A1,1,0,0,0,4,12.969h1V23.938a1.994,1.994,0,0,0,1.994,1.994h7.5A8.953,8.953,0,0,1,24.938,14.2V12.969h1a1,1,0,0,0,.68-1.726v0L26.6,11.23q-.033-.03-.068-.057l-1.593-1.3V5.989a1,1,0,0,0-1-1h-1a1,1,0,0,0-1,1V7.424L15.656,2.279l-.014-.012A1,1,0,0,0,14.966,2Zm7.977,13.961a6.98,6.98,0,1,0,6.98,6.98A6.98,6.98,0,0,0,22.944,15.961Zm-1,1.994h1.994v1.416a2.2,2.2,0,0,1,1.809,2.059H24.1a1.028,1.028,0,0,0-1.139-.843c-.628,0-1.042.3-1.042.765,0,.385.311.607,1.052.754l.906.177c1.388.268,2.01.894,2.01,2.01a2.221,2.221,0,0,1-1.946,2.236v1.4H21.947V26.536A2.172,2.172,0,0,1,20,24.454h1.7c.044.512.555.837,1.3.837.667,0,1.124-.322,1.124-.785,0-.39-.307-.6-1.11-.76l-.925-.185c-1.285-.243-1.948-.945-1.948-2.051a2.177,2.177,0,0,1,1.805-2.148Z" transform="translate(-3 -2)" fill="#1bc197"/>
</svg>
