<svg xmlns="http://www.w3.org/2000/svg" xmlns:xlink="http://www.w3.org/1999/xlink" width="118" height="93" viewBox="0 0 118 93">
  <defs>
    <linearGradient id="linear-gradient" x1="0.5" x2="0.5" y2="1" gradientUnits="objectBoundingBox">
      <stop offset="0" stop-color="#54eac4"/>
      <stop offset="1" stop-color="#19b08a"/>
    </linearGradient>
  </defs>
  <g id="searches-btn" transform="translate(-140 -55)">
    <g id="Path_146" data-name="Path 146" transform="translate(140 55)" fill="url(#linear-gradient)">
      <path d="M 106 92.5 L 12 92.5 C 8.92824649810791 92.5 6.040338516235352 91.30378723144531 3.868276834487915 89.13172149658203 C 1.696215391159058 86.95966339111328 0.5 84.07175445556641 0.5 81 L 0.5 12 C 0.5 8.92824649810791 1.696215391159058 6.040338516235352 3.868276834487915 3.868276834487915 C 6.040338516235352 1.696215391159058 8.92824649810791 0.5 12 0.5 L 106 0.5 C 109.0717544555664 0.5 111.9596633911133 1.696215391159058 114.131721496582 3.868276834487915 C 116.3037872314453 6.040338516235352 117.5 8.92824649810791 117.5 12 L 117.5 81 C 117.5 84.07175445556641 116.3037872314453 86.95966339111328 114.131721496582 89.13172149658203 C 111.9596633911133 91.30378723144531 109.0717544555664 92.5 106 92.5 Z" stroke="none"/>
      <path d="M 12 1 C 9.061798095703125 1 6.299446105957031 2.144203186035156 4.221832275390625 4.221832275390625 C 2.144203186035156 6.299446105957031 1 9.061798095703125 1 12 L 1 81 C 1 83.93820190429688 2.144203186035156 86.70055389404297 4.221832275390625 88.77816772460938 C 6.299446105957031 90.85579681396484 9.061798095703125 92 12 92 L 106 92 C 108.9382019042969 92 111.700553894043 90.85579681396484 113.7781677246094 88.77816772460938 C 115.8557968139648 86.70055389404297 117 83.93820190429688 117 81 L 117 12 C 117 9.061798095703125 115.8557968139648 6.299446105957031 113.7781677246094 4.221832275390625 C 111.700553894043 2.144203186035156 108.9382019042969 1 106 1 L 12 1 M 12 0 L 106 0 C 112.6274185180664 0 118 5.372581481933594 118 12 L 118 81 C 118 87.62741851806641 112.6274185180664 93 106 93 L 12 93 C 5.372581481933594 93 0 87.62741851806641 0 81 L 0 12 C 0 5.372581481933594 5.372581481933594 0 12 0 Z" stroke="none" fill="#f5ebd9"/>
    </g>
    <path id="Path_63399" data-name="Path 63399" d="M4.644-12.744c-2.322,0-4.032,1.422-4.032,3.51,0,1.8.954,2.9,3.42,3.78C5.67-4.878,6.1-4.374,6.1-3.42A1.658,1.658,0,0,1,4.248-1.674,4.149,4.149,0,0,1,1.44-2.88L.144-1.44A5.654,5.654,0,0,0,4.374.288C7.128.288,8.8-1.368,8.8-3.582c0-2.25-1.242-3.186-3.312-3.942-1.782-.648-2.214-1.044-2.214-1.89,0-.864.612-1.386,1.584-1.386A3.579,3.579,0,0,1,7.29-9.792L8.5-11.178A5.052,5.052,0,0,0,4.644-12.744Zm13.14,7.758c0-3.15-1.494-4.842-3.924-4.842-2.628,0-4.032,2.124-4.032,5.112,0,3.078,1.476,5,4.3,5A4.96,4.96,0,0,0,17.46-.99l-1.026-1.4a3.351,3.351,0,0,1-2.124.81c-1.08,0-1.8-.522-1.944-2.43H17.73C17.748-4.284,17.784-4.662,17.784-4.986ZM15.336-5.58h-2.97c.108-1.926.63-2.538,1.512-2.538,1.044,0,1.458.846,1.458,2.412ZM25.992-2.52V-6.552c0-2.142-1.08-3.276-3.492-3.276a8.711,8.711,0,0,0-3.258.7l.576,1.638a7.054,7.054,0,0,1,2.268-.486c1.044,0,1.458.378,1.458,1.566v.54H22.7c-2.646,0-4.068,1.134-4.068,3.2A2.718,2.718,0,0,0,21.456.288,2.9,2.9,0,0,0,24.012-1.1,2.165,2.165,0,0,0,26.064.252L26.586-1.4C26.172-1.584,25.992-1.836,25.992-2.52ZM22.158-1.512c-.648,0-1.044-.468-1.044-1.35,0-1.062.576-1.584,1.818-1.584h.612v1.89A1.568,1.568,0,0,1,22.158-1.512Zm10.62-8.28c-1.026,0-1.818.72-2.25,2l-.2-1.746H28.152V0h2.5V-5.058c.288-1.458.756-2.3,1.8-2.3a2.558,2.558,0,0,1,.756.108l.414-2.412A2.53,2.53,0,0,0,32.778-9.792Zm5.31-.036c-2.592,0-4.23,2-4.23,5.13,0,3.2,1.62,4.986,4.266,4.986A4.125,4.125,0,0,0,40.968-.828l-1.1-1.494a2.606,2.606,0,0,1-1.62.612c-1.044,0-1.764-.666-1.764-3.006,0-2.358.666-3.168,1.782-3.168a2.528,2.528,0,0,1,1.638.648l1.062-1.458A3.979,3.979,0,0,0,38.088-9.828Zm8.982,0A2.924,2.924,0,0,0,44.622-8.46v-5.13l-2.5.252V0h2.5V-6.606c.468-.828.972-1.332,1.548-1.332.5,0,.81.306.81,1.26V0h2.5V-7.038C49.482-8.748,48.582-9.828,47.07-9.828ZM59-4.986c0-3.15-1.494-4.842-3.924-4.842-2.628,0-4.032,2.124-4.032,5.112,0,3.078,1.476,5,4.3,5A4.96,4.96,0,0,0,58.68-.99l-1.026-1.4a3.351,3.351,0,0,1-2.124.81c-1.08,0-1.8-.522-1.944-2.43H58.95C58.968-4.284,59-4.662,59-4.986ZM56.556-5.58h-2.97c.108-1.926.63-2.538,1.512-2.538,1.044,0,1.458.846,1.458,2.412Zm7.02-4.248c-2.16,0-3.492,1.242-3.492,2.862,0,1.386.774,2.25,2.538,2.862,1.53.522,1.854.792,1.854,1.512,0,.684-.5,1.062-1.332,1.062a3.743,3.743,0,0,1-2.268-.9L59.67-1.08A5.083,5.083,0,0,0,63.234.288c2.124,0,3.8-1.116,3.8-3.06,0-1.62-.954-2.412-2.646-2.988-1.512-.5-1.818-.774-1.818-1.35,0-.558.414-.9,1.152-.9a3.7,3.7,0,0,1,2.07.72l.936-1.386A4.63,4.63,0,0,0,63.576-9.828Z" transform="translate(166 131)" fill="#415e8f"/>
    <path id="Icon_awesome-search" data-name="Icon awesome-search" d="M35.508,31.127l-7.01-7.01a1.686,1.686,0,0,0-1.2-.492H26.156a14.618,14.618,0,1,0-2.531,2.531V27.3a1.686,1.686,0,0,0,.492,1.2l7.01,7.01a1.681,1.681,0,0,0,2.384,0l1.99-1.99a1.7,1.7,0,0,0,.007-2.391Zm-20.883-7.5a9,9,0,1,1,9-9A8.995,8.995,0,0,1,14.625,23.625Z" transform="translate(181.001 74)" fill="#fff"/>
  </g>
</svg>
