<svg xmlns="http://www.w3.org/2000/svg" xmlns:xlink="http://www.w3.org/1999/xlink" width="34.561" height="34.557" viewBox="0 0 34.561 34.557">
  <defs>
    <filter id="send-icon" x="0" y="0" width="34.561" height="34.557" filterUnits="userSpaceOnUse">
      <feOffset dy="3" input="SourceAlpha"/>
      <feGaussianBlur stdDeviation="1" result="blur"/>
      <feFlood flood-opacity="0.161" result="color"/>
      <feComposite operator="out" in="SourceGraphic" in2="blur"/>
      <feComposite operator="in" in="color"/>
      <feComposite operator="in" in2="SourceGraphic"/>
    </filter>
  </defs>
  <g data-type="innerShadowGroup">
    <path id="send-icon-2" data-name="send-icon" d="M37.974,4.58,4.931,18.982a.757.757,0,0,0,.027,1.377l8.938,5.05a1.441,1.441,0,0,0,1.647-.162L33.168,10.053c.117-.1.4-.288.5-.18s-.063.387-.162.5L18.262,27.551a1.436,1.436,0,0,0-.144,1.719l5.842,9.37a.76.76,0,0,0,1.368-.018L38.991,5.579A.758.758,0,0,0,37.974,4.58Z" transform="translate(-4.503 -4.503)" fill="#fff"/>
    <g transform="matrix(1, 0, 0, 1, 0, 0)" filter="url(#send-icon)">
      <path id="send-icon-3" data-name="send-icon" d="M37.974,4.58,4.931,18.982a.757.757,0,0,0,.027,1.377l8.938,5.05a1.441,1.441,0,0,0,1.647-.162L33.168,10.053c.117-.1.4-.288.5-.18s-.063.387-.162.5L18.262,27.551a1.436,1.436,0,0,0-.144,1.719l5.842,9.37a.76.76,0,0,0,1.368-.018L38.991,5.579A.758.758,0,0,0,37.974,4.58Z" transform="translate(-4.5 -4.5)" fill="#fff"/>
    </g>
  </g>
</svg>
