<?xml version="1.0" encoding="UTF-8"?><svg xmlns="http://www.w3.org/2000/svg" viewBox="0 0 4799.52 4799.52"><g id="uuid-445c6875-289f-4405-a5ea-a4bc55a0b2b2"><rect width="4799.52" height="4799.52" fill="#fffffe" stroke-width="0"/></g><g id="uuid-b622f5ff-5790-4ee3-9bab-1dc03b2873bb"><polygon points="3989.96 599.94 3659.83 599.94 3394.98 599.94 3394.98 900.54 3338.73 900.54 3338.73 599.94 3008.14 599.94 3008.14 900.54 2951.89 900.54 2951.89 599.94 2621.3 599.94 2621.3 900.54 2565.06 900.54 2565.06 599.94 2234.46 599.94 2234.46 900.54 2178.22 900.54 2178.22 599.94 1847.63 599.94 1847.63 900.54 1791.38 900.54 1791.38 599.94 1537.5 599.94 1460.79 599.94 1460.79 900.54 1404.54 900.54 1404.54 599.94 809.56 599.94 809.56 887.28 1119.35 887.28 1119.35 943.53 809.56 943.53 809.56 1274.12 1119.35 1274.12 1119.35 1330.37 809.56 1330.37 809.56 1660.96 1119.35 1660.96 1119.35 1717.2 809.56 1717.2 809.56 2047.8 1119.35 2047.8 1119.35 2104.04 809.56 2104.04 809.56 2434.63 1119.35 2434.63 1119.35 2490.88 809.56 2490.88 809.56 2821.47 1119.35 2821.47 1119.35 2877.72 809.56 2877.72 809.56 3165.06 1537.5 3165.06 1537.5 1327.88 3989.96 1327.88 3989.96 599.94" fill="#1bc197" fill-rule="evenodd" stroke-width="0"/><polygon points="809.56 4199.58 1139.69 4199.58 1404.54 4199.58 1404.54 3898.98 1460.79 3898.98 1460.79 4199.58 1791.38 4199.58 1791.38 3898.98 1847.63 3898.98 1847.63 4199.58 2178.22 4199.58 2178.22 3898.98 2234.46 3898.98 2234.46 4199.58 2565.06 4199.58 2565.06 3898.98 2621.3 3898.98 2621.3 4199.58 2951.89 4199.58 2951.89 3898.98 3008.14 3898.98 3008.14 4199.58 3262.02 4199.58 3338.73 4199.58 3338.73 3898.98 3394.98 3898.98 3394.98 4199.58 3989.96 4199.58 3989.96 3912.24 3680.17 3912.24 3680.17 3855.99 3989.96 3855.99 3989.96 3525.4 3680.17 3525.4 3680.17 3469.15 3989.96 3469.15 3989.96 3138.56 3680.17 3138.56 3680.17 3082.32 3989.96 3082.32 3989.96 2751.73 3680.17 2751.73 3680.17 2695.48 3989.96 2695.48 3989.96 2364.89 3680.17 2364.89 3680.17 2308.64 3989.96 2308.64 3989.96 1978.05 3680.17 1978.05 3680.17 1921.8 3989.96 1921.8 3989.96 1634.46 3262.02 1634.46 3262.02 3471.64 809.56 3471.64 809.56 4199.58" fill="#1bc197" fill-rule="evenodd" stroke-width="0"/></g></svg>