<svg xmlns="http://www.w3.org/2000/svg" xmlns:xlink="http://www.w3.org/1999/xlink" width="85.213" height="85.214" viewBox="0 0 85.213 85.214">
  <defs>
    <linearGradient id="linear-gradient" x1="0.5" x2="0.5" y2="1" gradientUnits="objectBoundingBox">
      <stop offset="0" stop-color="#1bc197"/>
      <stop offset="1" stop-color="#0e614c"/>
    </linearGradient>
    <filter id="staff-icon-green" x="0" y="0" width="85.213" height="85.214" filterUnits="userSpaceOnUse">
      <feOffset dy="2" input="SourceAlpha"/>
      <feGaussianBlur stdDeviation="2" result="blur"/>
      <feFlood flood-opacity="0.369"/>
      <feComposite operator="in" in2="blur"/>
      <feComposite in="SourceGraphic"/>
    </filter>
  </defs>
  <g transform="matrix(1, 0, 0, 1, 0, 0)" filter="url(#staff-icon-green)">
    <path id="staff-icon-green-2" data-name="staff-icon-green" d="M36.607,41.183A20.591,20.591,0,1,0,16.015,20.591,20.591,20.591,0,0,0,36.607,41.183Zm18.3,4.576h-7.88a24.893,24.893,0,0,1-20.848,0H18.3A18.3,18.3,0,0,0,0,64.062V66.35a6.867,6.867,0,0,0,6.864,6.864H66.35a6.867,6.867,0,0,0,6.864-6.864V64.062A18.3,18.3,0,0,0,54.91,45.758Z" transform="translate(6 4)" fill="url(#linear-gradient)"/>
  </g>
</svg>
