<svg id="states-icon" xmlns="http://www.w3.org/2000/svg" width="42" height="37.285" viewBox="0 0 42 37.285">
  <path id="Path_62724" data-name="Path 62724" d="M7.439,213.107h5.528a11.973,11.973,0,0,0,.608,1.3c.06.115.131.232.2.345l1.059,1.87-7.742-1.441c.118-.7.236-1.392.35-2.077m16.706-11.89a8.9,8.9,0,0,1,7.827,13.126s-.132.237-.146.258l-6.666,11.76a1.065,1.065,0,0,1-2.027,0L16.464,214.6c-.047-.083-.1-.17-.144-.256a8.9,8.9,0,0,1,7.825-13.127m11.177,11.89a11.6,11.6,0,0,1-.606,1.3s-.178.32-.2.349l-2.833,5,10.626,1.972q-.391-2.308-.758-4.484-.358-2.123-.7-4.135Zm7.95,14.305q.434,2.564.894,5.287.475,2.809.98,5.8H42.06Q39.934,235,37.97,231.74q-1.9-3.14-3.662-6.072,4.432.865,8.964,1.745M35.524,238.5q-2.153-3.888-4.128-7.481l-3-5.457-2.877,5.076c-.753,1.326-1.984,1.33-2.738,0l-4.605-8.123-1.392-.273q-5.335-1.042-10.537-2.059l-1.425,8.432Q4.03,233.29,3.146,238.5H35.524Z" transform="translate(-3.146 -201.217)" fill="#8282e4" fill-rule="evenodd"/>
</svg>
