<svg xmlns="http://www.w3.org/2000/svg" width="22.81" height="22.81" viewBox="0 0 22.81 22.81">
  <path id="street-icon" d="M14.405,2a.941.941,0,0,0-.64.258l0,0-.028.024L3.3,10.808l0,.006a.946.946,0,0,0,.646,1.641H4.9V22.909a1.9,1.9,0,0,0,1.9,1.9H22.008a1.9,1.9,0,0,0,1.9-1.9V12.455h.95a.946.946,0,0,0,.646-1.641l0-.006L22.959,8.723V4.851a.951.951,0,0,0-.95-.95h-.95a.951.951,0,0,0-.95.95V6.392L15.077,2.278l-.028-.024,0,0A.941.941,0,0,0,14.405,2ZM9.653,14.355h9.5a.95.95,0,1,1,0,1.9h-9.5a.95.95,0,1,1,0-1.9Zm0,3.8h9.5a.95.95,0,1,1,0,1.9h-9.5a.95.95,0,1,1,0-1.9Z" transform="translate(-3 -2)" fill="#1bc197"/>
</svg>
