<svg id="twitter_icon" data-name="twitter icon" xmlns="http://www.w3.org/2000/svg" xmlns:xlink="http://www.w3.org/1999/xlink" width="36" height="36" viewBox="0 0 36 36">
  <defs>
    <filter id="Ellipse_4" x="0" y="0" width="36" height="36" filterUnits="userSpaceOnUse">
      <feOffset dy="6" input="SourceAlpha"/>
      <feGaussianBlur stdDeviation="6" result="blur"/>
      <feFlood flood-opacity="0.104" result="color"/>
      <feComposite operator="out" in="SourceGraphic" in2="blur"/>
      <feComposite operator="in" in="color"/>
      <feComposite operator="in" in2="SourceGraphic"/>
    </filter>
    <linearGradient id="linear-gradient" x1="0.5" x2="0.5" y2="1" gradientUnits="objectBoundingBox">
      <stop offset="0" stop-color="#88d4fa"/>
      <stop offset="1" stop-color="#2a9be6"/>
    </linearGradient>
    <filter id="Ellipse_5" x="3" y="3" width="30" height="30" filterUnits="userSpaceOnUse">
      <feOffset dy="8" input="SourceAlpha"/>
      <feGaussianBlur stdDeviation="6" result="blur-2"/>
      <feFlood flood-opacity="0.161" result="color-2"/>
      <feComposite operator="out" in="SourceGraphic" in2="blur-2"/>
      <feComposite operator="in" in="color-2"/>
      <feComposite operator="in" in2="SourceGraphic"/>
    </filter>
  </defs>
  <g data-type="innerShadowGroup">
    <circle id="Ellipse_4-2" data-name="Ellipse 4" cx="18" cy="18" r="18" fill="rgba(117,161,185,0.23)" opacity="0.85"/>
    <g transform="matrix(1, 0, 0, 1, 0, 0)" filter="url(#Ellipse_4)">
      <circle id="Ellipse_4-3" data-name="Ellipse 4" cx="18" cy="18" r="18" fill="#fff" opacity="0.85"/>
    </g>
  </g>
  <circle id="Ellipse_3" data-name="Ellipse 3" cx="16" cy="16" r="16" transform="translate(2 2)" fill="#fff"/>
  <g data-type="innerShadowGroup">
    <circle id="Ellipse_5-2" data-name="Ellipse 5" cx="15" cy="15" r="15" transform="translate(3 3)" fill="url(#linear-gradient)"/>
    <g transform="matrix(1, 0, 0, 1, 0, 0)" filter="url(#Ellipse_5)">
      <circle id="Ellipse_5-3" data-name="Ellipse 5" cx="15" cy="15" r="15" transform="translate(3 3)" fill="#fff"/>
    </g>
  </g>
  <path id="Path_137" data-name="Path 137" d="M35.98,26.044a6.307,6.307,0,0,1-1.815.5,3.169,3.169,0,0,0,1.389-1.748,6.316,6.316,0,0,1-2.006.767,3.162,3.162,0,0,0-5.384,2.882,8.97,8.97,0,0,1-6.513-3.3,3.163,3.163,0,0,0,.978,4.218,3.139,3.139,0,0,1-1.431-.4c0,.013,0,.027,0,.04a3.161,3.161,0,0,0,2.535,3.1,3.166,3.166,0,0,1-1.427.055,3.163,3.163,0,0,0,2.952,2.194,6.38,6.38,0,0,1-4.678,1.309,8.986,8.986,0,0,0,13.833-7.571q0-.205-.009-.408a6.412,6.412,0,0,0,1.577-1.636" transform="translate(-9.977 -12.82)" fill="#f1f2f2"/>
</svg>
