<svg xmlns="http://www.w3.org/2000/svg" xmlns:xlink="http://www.w3.org/1999/xlink" width="416" height="416" viewBox="0 0 416 416">
  <defs>
    <filter id="Ellipse_4" x="0" y="0" width="416" height="416" filterUnits="userSpaceOnUse">
      <feOffset dy="6" input="SourceAlpha"/>
      <feGaussianBlur stdDeviation="6" result="blur"/>
      <feFlood flood-opacity="0.104" result="color"/>
      <feComposite operator="out" in="SourceGraphic" in2="blur"/>
      <feComposite operator="in" in="color"/>
      <feComposite operator="in" in2="SourceGraphic"/>
    </filter>
    <linearGradient id="linear-gradient" x1="0.5" x2="0.5" y2="1" gradientUnits="objectBoundingBox">
      <stop offset="0" stop-color="#eb3535"/>
      <stop offset="1" stop-color="#a11c1c"/>
    </linearGradient>
    <filter id="Ellipse_5" x="33" y="33" width="350" height="350" filterUnits="userSpaceOnUse">
      <feOffset dy="8" input="SourceAlpha"/>
      <feGaussianBlur stdDeviation="6" result="blur-2"/>
      <feFlood flood-opacity="0.161" result="color-2"/>
      <feComposite operator="out" in="SourceGraphic" in2="blur-2"/>
      <feComposite operator="in" in="color-2"/>
      <feComposite operator="in" in2="SourceGraphic"/>
    </filter>
  </defs>
  <g id="youtube-icon" transform="translate(-1936 -1265)">
    <g data-type="innerShadowGroup">
      <circle id="Ellipse_4-2" data-name="Ellipse 4" cx="208" cy="208" r="208" transform="translate(1936 1265)" fill="rgba(117,161,185,0.23)" opacity="0.85"/>
      <g transform="matrix(1, 0, 0, 1, 1936, 1265)" filter="url(#Ellipse_4)">
        <circle id="Ellipse_4-3" data-name="Ellipse 4" cx="208" cy="208" r="208" fill="#fff" opacity="0.85"/>
      </g>
    </g>
    <circle id="Ellipse_3" data-name="Ellipse 3" cx="182" cy="182" r="182" transform="translate(1962 1291)" fill="#fff"/>
    <g data-type="innerShadowGroup">
      <circle id="Ellipse_5-2" data-name="Ellipse 5" cx="175" cy="175" r="175" transform="translate(1969 1298)" fill="url(#linear-gradient)"/>
      <g transform="matrix(1, 0, 0, 1, 1936, 1265)" filter="url(#Ellipse_5)">
        <circle id="Ellipse_5-3" data-name="Ellipse 5" cx="175" cy="175" r="175" transform="translate(33 33)" fill="#fff"/>
      </g>
    </g>
    <path id="Path_136" data-name="Path 136" d="M203.326,54.654A27.215,27.215,0,0,0,176.11,27.429H48.462A27.214,27.214,0,0,0,21.25,54.654v73a27.213,27.213,0,0,0,27.212,27.221H176.11a27.214,27.214,0,0,0,27.216-27.221Zm-109.246,67.3V53.39l52,34.276Z" transform="translate(2031.712 1381.849)" fill="#f1f2f2" fill-rule="evenodd"/>
  </g>
</svg>
